<?xml version="1.0" encoding="UTF-8" standalone="no"?>
<svg xmlns:dc="http://purl.org/dc/elements/1.1/" xmlns:cc="http://creativecommons.org/ns#" xmlns:rdf="http://www.w3.org/1999/02/22-rdf-syntax-ns#" xmlns:svg="http://www.w3.org/2000/svg" xmlns="http://www.w3.org/2000/svg" viewBox="0 0 1187.5 461.25" height="461.25" width="1187.5" xml:space="preserve" version="1.1" id="svg2"><metadata id="metadata8"><rdf:RDF><cc:Work  rdf:about=""><dc:format>image/svg+xml</dc:format><dc:type  rdf:resource="http://purl.org/dc/dcmitype/StillImage" /></cc:Work></rdf:RDF></metadata><defs id="defs6"><clipPath  id="clipPath16"  clipPathUnits="userSpaceOnUse"><path  id="path18"  d="M 0,369 950,369 950,0 0,0 0,369 Z" /></clipPath></defs><g transform="matrix(1.25,0,0,-1.25,0,461.25)" id="g10"><g  id="g12"><g  clip-path="url(#clipPath16)"  id="g14"><g  transform="translate(294.3273,326.0489)"  id="g20"><path id="path22" style="fill:#878786;fill-opacity:1;fill-rule:nonzero;stroke:none" d="m 0,0 c 1.903,0 3.977,0.221 6.275,0.621 l 0.312,-2.436 c -2.077,-0.526 -4.95,-0.749 -6.981,-0.749 -9.458,0 -12.817,6.76 -12.817,15.554 0,12.022 6.321,15.201 12.68,15.201 2.386,0 5.126,-0.31 7.291,-1.016 L 6.232,24.789 c -2.298,0.662 -4.595,0.883 -6.626,0.883 -5.481,0 -9.547,-2.83 -9.547,-12.639 C -9.941,2.78 -6.141,0 0,0" /></g><g  transform="translate(316.6021,335.1519)"  id="g24"><path id="path26" style="fill:#878786;fill-opacity:1;fill-rule:nonzero;stroke:none" d="m 0,0 c 0,-6.936 2.384,-9.149 6.801,-9.149 3.801,0 6.806,2.213 6.806,9.149 0,7.511 -2.559,9.188 -6.76,9.188 C 3.14,9.188 0,7.511 0,0 m -2.958,0 c 0,8.573 3.839,11.663 9.894,11.663 6.143,0 9.629,-3.002 9.629,-11.62 0,-8.57 -3.798,-11.71 -9.848,-11.71 -6.585,0 -9.675,3.051 -9.675,11.667" /></g><g  transform="translate(358.1425,346.8598)"  id="g28"><path id="path30" style="fill:#878786;fill-opacity:1;fill-rule:nonzero;stroke:none" d="m 0,0 c 4.283,0 7.466,-1.414 7.466,-7.291 l 0,-15.462 -2.741,0 0,14.756 c 0,4.641 -2.161,5.479 -5.565,5.479 -2.391,0 -4.95,-0.661 -6.319,-1.505 l 0,-18.73 -2.784,0 0,20.545 C -6.899,-1.016 -3.231,0 0,0" /></g><g  transform="translate(392.5239,324.3681)"  id="g32"><path id="path34" style="fill:#878786;fill-opacity:1;fill-rule:nonzero;stroke:none" d="m 0,0 c -1.593,-0.528 -3.096,-0.706 -4.686,-0.706 -4.642,0 -5.612,1.676 -5.612,5.92 l 0,14.404 -3.092,0 0,2.298 3.092,0 0,5.615 2.828,0.394 0,-6.009 7.427,0 -0.446,-2.298 -7.025,0 0,-14.845 c 0,-1.767 0.044,-3.181 3.002,-3.181 0.978,0 2.606,0.177 4.066,0.571 L 0,0 Z" /></g><g  transform="translate(418.6427,333.6924)"  id="g36"><path id="path38" style="fill:#878786;fill-opacity:1;fill-rule:nonzero;stroke:none" d="m 0,0 c -1.771,0.355 -3.491,0.487 -4.993,0.487 -3.625,0 -6.146,-1.193 -6.146,-4.376 0,-3.092 3.01,-3.935 6.011,-3.935 1.94,0 3.976,0.356 5.128,0.711 L 0,0 Z m 2.958,-8.705 c -1.988,-0.706 -5.656,-1.416 -9.013,-1.416 -4.157,0 -7.998,1.548 -7.998,6.098 0,5.259 4.287,6.63 8.436,6.63 2.126,0 4.158,-0.355 5.617,-0.704 l 0,3.179 c 0,3.445 -0.927,5.437 -5.349,5.437 -2.031,0 -4.244,-0.443 -6.453,-1.015 l -0.528,2.159 c 2.075,0.71 5.7,1.331 7.557,1.331 5.652,0 7.731,-2.436 7.731,-7.735 l 0,-13.964 z" /></g><g  transform="translate(439.6768,326.9323)"  id="g40"><path id="path42" style="fill:#878786;fill-opacity:1;fill-rule:nonzero;stroke:none" d="m 0,0 c 1.503,-0.706 3.889,-0.927 5.388,-0.927 5.526,0 7.288,4.461 7.288,9.677 0,6.186 -2.733,8.616 -6.626,8.616 -1.806,0 -3.889,-0.532 -6.05,-1.459 L 0,0 Z m -2.741,-2.075 0,30.177 2.741,0 0,-9.632 c 2.252,0.927 4.504,1.46 6.54,1.46 5.171,0 9.098,-3.274 9.098,-11.137 0,-6.452 -2.386,-12.238 -10.38,-12.238 -3.318,0 -6.141,0.615 -7.999,1.37" /></g><path  id="path44"  style="fill:#878786;fill-opacity:1;fill-rule:nonzero;stroke:none"  d="m 472.421,324.102 -2.785,0 0,22.182 2.785,0 0,-22.182 z m -2.78,30.577 2.785,0 0,-3.973 -2.785,0 0,3.973 z" /><g  transform="translate(490.7623,355.0342)"  id="g46"><path id="path48" style="fill:#878786;fill-opacity:1;fill-rule:nonzero;stroke:none" d="m 0,0 0,-26.731 c 0,-1.993 0.97,-2.432 2.252,-2.432 0.888,0 1.901,0.134 2.871,0.4 l 0.225,-2.124 c -1.459,-0.485 -3.135,-0.617 -3.802,-0.617 -4.378,0 -4.417,3.313 -4.417,4.727 L -2.871,0 0,0 Z" /></g><path  id="path50"  style="fill:#878786;fill-opacity:1;fill-rule:nonzero;stroke:none"  d="m 511.666,324.102 -2.785,0 0,22.182 2.785,0 0,-22.182 z m -2.784,30.577 2.785,0 0,-3.973 -2.785,0 0,3.973 z" /><g  transform="translate(541.7564,343.1941)"  id="g52"><path id="path54" style="fill:#878786;fill-opacity:1;fill-rule:nonzero;stroke:none" d="m 0,0 c -1.412,0.483 -3.971,0.972 -5.742,0.972 -5.08,0 -6.848,-3.757 -6.848,-9.855 0,-6.496 3.314,-8.438 7.817,-8.438 1.551,0 3.227,0.31 4.864,0.793 L 0,0 Z m -5.652,3.402 c 1.806,0 3.976,-0.355 5.743,-0.75 l 0,9.721 2.784,0 0,-30.844 c -2.741,-0.621 -5.742,-1.193 -8.527,-1.193 -5.482,0 -10.077,2.254 -10.077,10.736 0,6.936 2.52,12.33 10.077,12.33" /></g><g  transform="translate(573.1369,333.6924)"  id="g56"><path id="path58" style="fill:#878786;fill-opacity:1;fill-rule:nonzero;stroke:none" d="m 0,0 c -1.771,0.355 -3.491,0.487 -4.993,0.487 -3.625,0 -6.146,-1.193 -6.146,-4.376 0,-3.092 3.01,-3.935 6.011,-3.935 1.94,0 3.976,0.356 5.128,0.711 L 0,0 Z m 2.958,-8.705 c -1.988,-0.706 -5.656,-1.416 -9.013,-1.416 -4.157,0 -7.998,1.548 -7.998,6.098 0,5.259 4.287,6.63 8.436,6.63 2.126,0 4.158,-0.355 5.617,-0.704 l 0,3.179 c 0,3.445 -0.927,5.437 -5.349,5.437 -2.031,0 -4.244,-0.443 -6.453,-1.015 l -0.528,2.159 c 2.075,0.71 5.7,1.331 7.557,1.331 5.652,0 7.731,-2.436 7.731,-7.735 l 0,-13.964 z" /></g><g  transform="translate(606.1888,343.1941)"  id="g60"><path id="path62" style="fill:#878786;fill-opacity:1;fill-rule:nonzero;stroke:none" d="m 0,0 c -1.416,0.483 -3.976,0.972 -5.742,0.972 -5.085,0 -6.848,-3.757 -6.848,-9.855 0,-6.496 3.314,-8.438 7.817,-8.438 1.547,0 3.223,0.31 4.859,0.793 L 0,0 Z m -5.656,3.402 c 1.81,0 3.98,-0.355 5.742,-0.75 l 0,9.721 2.785,0 0,-30.844 c -2.737,-0.621 -5.742,-1.193 -8.527,-1.193 -5.478,0 -10.073,2.254 -10.073,10.736 0,6.936 2.516,12.33 10.073,12.33" /></g><g  transform="translate(633.8535,344.5627)"  id="g64"><path id="path66" style="fill:#878786;fill-opacity:1;fill-rule:nonzero;stroke:none" d="m 0,0 c -6.055,0 -6.76,-5.92 -6.76,-6.936 l 12.463,0 C 6.228,-2.564 3.932,0 0,0 m -9.857,-9.327 c 0,5.882 2.521,11.535 9.723,11.535 7.379,0 9.674,-4.949 8.531,-11.535 l -15.244,0 c 0,-6.27 2.295,-9.232 7.38,-9.232 2.472,0 4.859,0.532 6.621,1.459 l 0.49,-2.386 c -2.252,-1.016 -4.461,-1.592 -7.246,-1.592 -6.851,0 -10.255,4.155 -10.255,11.751" /></g><g  transform="translate(685.3802,344.5627)"  id="g68"><path id="path70" style="fill:#878786;fill-opacity:1;fill-rule:nonzero;stroke:none" d="m 0,0 c -6.054,0 -6.765,-5.92 -6.765,-6.936 l 12.464,0 C 6.228,-2.564 3.932,0 0,0 m -9.856,-9.327 c 0,5.882 2.52,11.535 9.722,11.535 7.379,0 9.675,-4.949 8.527,-11.535 l -15.24,0 c 0,-6.27 2.296,-9.232 7.376,-9.232 2.472,0 4.859,0.532 6.625,1.459 l 0.49,-2.386 c -2.256,-1.016 -4.465,-1.592 -7.25,-1.592 -6.847,0 -10.25,4.155 -10.25,11.751" /></g><path  id="path72"  style="fill:#878786;fill-opacity:1;fill-rule:nonzero;stroke:none"  d="m 731.736,324.102 -3.005,0 0,29.518 3.005,0 0,-29.518 z" /><g  transform="translate(757.9025,346.8598)"  id="g74"><path id="path76" style="fill:#878786;fill-opacity:1;fill-rule:nonzero;stroke:none" d="M 0,0 C 2.386,0 4.461,-0.444 5.786,-1.899 8.432,-0.533 11.307,0 14.005,0 c 4.288,0 7.467,-1.414 7.467,-7.291 l 0,-15.462 -2.737,0 0,14.756 c 0,4.641 -2.17,5.479 -5.569,5.479 -2.348,0 -4.816,-0.661 -6.237,-1.328 0.36,-0.926 0.537,-2.074 0.537,-3.445 l 0,-15.462 -2.745,0 0,14.756 c 0,4.641 -2.161,5.479 -5.561,5.479 -2.391,0 -4.729,-0.661 -6.098,-1.505 l 0,-18.73 -2.784,0 0,20.545 C -6.673,-1.016 -3.231,0 0,0" /></g><g  transform="translate(800.8113,349.6448)"  id="g78"><path id="path80" style="fill:#878786;fill-opacity:1;fill-rule:nonzero;stroke:none" d="M 0,0 -0.979,1.81 6.934,6.58 8.35,4.155 0,0 Z m -3.625,-14.493 c 0,-6.94 2.386,-9.149 6.804,-9.149 3.802,0 6.808,2.209 6.808,9.149 0,7.514 -2.564,9.19 -6.765,9.19 -3.711,0 -6.847,-1.676 -6.847,-9.19 m -2.962,0 c 0,8.573 3.846,11.663 9.9,11.663 6.141,0 9.632,-3.002 9.632,-11.618 0,-8.572 -3.799,-11.712 -9.853,-11.712 -6.583,0 -9.679,3.051 -9.679,11.667" /></g><g  transform="translate(842.6589,346.286)"  id="g82"><path id="path84" style="fill:#878786;fill-opacity:1;fill-rule:nonzero;stroke:none" d="m 0,0 2.915,0 -8.22,-22.182 -2.785,0 L -16.357,0 -13.304,0 -6.587,-18.737 0,0 Z" /></g><g  transform="translate(867.5826,344.5627)"  id="g86"><path id="path88" style="fill:#878786;fill-opacity:1;fill-rule:nonzero;stroke:none" d="m 0,0 c -6.055,0 -6.761,-5.92 -6.761,-6.936 l 12.46,0 C 6.228,-2.564 3.932,0 0,0 m -9.857,-9.327 c 0,5.882 2.525,11.535 9.727,11.535 7.379,0 9.67,-4.949 8.527,-11.535 l -15.244,0 c 0,-6.27 2.295,-9.232 7.38,-9.232 2.472,0 4.859,0.532 6.621,1.459 l 0.49,-2.386 c -2.252,-1.016 -4.461,-1.592 -7.246,-1.592 -6.846,0 -10.255,4.155 -10.255,11.751" /></g><path  id="path90"  style="fill:#878786;fill-opacity:1;fill-rule:nonzero;stroke:none"  d="m 893.346,324.102 -2.785,0 0,22.182 2.785,0 0,-22.182 z m -2.785,30.577 2.785,0 0,-3.973 -2.785,0 0,3.973 z" /><g  transform="translate(908.1052,326.9753)"  id="g92"><path id="path94" style="fill:#878786;fill-opacity:1;fill-rule:nonzero;stroke:none" d="m 0,0 c 1.589,-0.483 3.581,-0.972 5.747,-0.972 3.663,0 5.166,1.416 5.166,3.714 0,5.785 -11.264,3.399 -11.264,10.735 0,4.11 2.828,6.365 7.821,6.365 2.651,0 4.197,-0.401 5.383,-0.75 l -0.48,-2.298 c -1.282,0.26 -2.915,0.573 -4.816,0.573 -3.27,0 -4.907,-1.105 -4.907,-3.58 0,-5.303 11.308,-3.534 11.308,-10.519 0,-3.974 -2.647,-6.759 -8.345,-6.759 -2.473,0 -5.037,0.622 -6.362,1.283 L 0,0 Z" /></g><g  transform="translate(114.9937,138.0863)"  id="g96"><path id="path98" style="fill:#1c3055;fill-opacity:1;fill-rule:nonzero;stroke:none" d="m 0,0 c 32.362,-17.261 53.939,-33.29 63.801,-43.151 3.959,-3.997 6.759,-8.04 8.691,-12.023 0.003,0.002 0.015,0.012 0.015,0.012 C 69.187,-24.093 1.85,7.629 -12.713,16.875 -65.26,45.592 -83.505,74.402 -84.447,75.932 -66.214,30.594 -25.699,14.361 0,0" /></g><g  transform="translate(187.4869,82.9147)"  id="g100"><path id="path102" style="fill:#f15a2c;fill-opacity:1;fill-rule:nonzero;stroke:none" d="m 0,0 c -1.935,3.984 -4.735,8.027 -8.691,12.02 -9.864,9.865 -31.439,25.89 -63.801,43.152 -25.702,14.361 -66.214,30.594 -84.449,75.933 -4.074,10.127 -7.047,21.689 -8.483,35.029 l 0,-203.893 c 0,0 110.961,-62.417 159.507,-4.623 C -2.022,-37.271 9.37,-19.299 0,0" /></g><g  transform="translate(152.7204,178.7365)"  id="g104"><path id="path106" style="fill:#f15a2c;fill-opacity:1;fill-rule:nonzero;stroke:none" d="m 0,0 c -32.362,17.261 -53.939,33.29 -63.801,43.15 -3.959,3.998 -6.759,8.039 -8.691,12.025 0,0 -0.015,-0.014 -0.012,-0.014 C -69.187,24.093 -1.85,-7.628 12.713,-16.875 65.26,-45.592 83.505,-74.4 84.447,-75.932 66.214,-30.594 25.699,-14.361 0,0" /></g><g  transform="translate(80.2272,233.9097)"  id="g108"><path id="path110" style="fill:#1c3055;fill-opacity:1;fill-rule:nonzero;stroke:none" d="m 0,0 c 1.936,-3.986 4.735,-8.027 8.691,-12.022 9.864,-9.863 31.439,-25.89 63.802,-43.151 25.702,-14.362 66.214,-30.591 84.448,-75.936 4.074,-10.123 7.047,-21.686 8.483,-35.025 l 0,203.891 c 0,0 -110.961,62.416 -159.507,4.624 C 2.021,37.271 -9.37,19.298 0,0" /></g><g  transform="translate(359.5678,59.5508)"  id="g112"><path id="path114" style="fill:#1c3055;fill-opacity:1;fill-rule:nonzero;stroke:none" d="m 0,0 c -46.533,0 -66.767,24.955 -67.105,63.056 0,2.03 0.676,3.713 2.697,4.049 l 44.512,7.082 c 2.363,0.34 3.711,-1.01 3.711,-3.033 C -15.847,53.955 -10.789,46.2 0,46.2 c 9.78,0 14.84,5.392 14.84,21.245 0,15.507 -3.711,20.906 -20.571,27.314 l -13.825,5.396 c -32.373,12.813 -45.525,31.023 -45.525,68.791 0,43.501 21.245,67.107 65.421,67.107 42.824,0 64.746,-22.593 66.093,-58.675 0,-2.025 -1.012,-3.371 -3.035,-3.709 l -42.489,-6.407 c -2.022,-0.34 -3.711,0.673 -3.711,2.696 -0.335,13.488 -5.394,19.895 -14.835,19.895 -9.105,0 -13.827,-5.733 -13.827,-17.197 0,-13.149 3.71,-17.536 21.244,-24.617 l 13.826,-5.395 C 56.316,130.168 69.131,112.292 69.131,74.187 69.131,24.955 47.549,0 0,0" /></g><g  transform="translate(517.053,163.7514)"  id="g116"><path id="path118" style="fill:#1c3055;fill-opacity:1;fill-rule:nonzero;stroke:none" d="m 0,0 c 0,14.5 -0.34,17.873 -1.353,20.569 -1.347,4.385 -4.716,7.085 -10.111,7.085 -5.399,0 -8.772,-2.7 -10.118,-7.085 C -22.594,17.873 -22.933,14.5 -22.933,0 c 0,-1.347 0.675,-2.023 2.024,-2.023 l 18.883,0 C -0.673,-2.023 0,-1.347 0,0 m -69.131,-67.105 c -3.036,9.441 -4.383,19.222 -4.383,48.222 0,29.001 1.347,39.118 4.383,48.557 7.754,23.606 26.302,37.093 56.314,37.093 30.013,0 48.559,-13.487 56.317,-37.093 3.033,-9.439 4.723,-18.21 4.723,-60.361 0,-2.023 -1.353,-3.372 -3.373,-3.372 l -65.759,0 c -1.349,0 -2.024,-0.673 -2.024,-2.023 0,-13.827 0.339,-16.187 1.013,-18.883 1.684,-4.722 5.394,-7.085 10.456,-7.085 6.068,0 10.111,3.376 12.474,10.455 0.676,2.026 2.023,3.039 4.046,2.699 l 38.781,-7.758 c 2.023,-0.334 2.696,-2.02 2.36,-4.046 -5.396,-28.327 -28.328,-43.501 -59.014,-43.501 -30.012,0 -48.56,13.491 -56.314,37.096" /></g><g  transform="translate(614.851,62.9233)"  id="g120"><path id="path122" style="fill:#f15a2c;fill-opacity:1;fill-rule:nonzero;stroke:none" d="m 0,0 c -2.36,0 -3.373,1.013 -4.046,3.373 l -39.118,157.48 c -0.673,2.021 0.337,3.371 2.359,3.371 l 43.501,0 c 2.363,0 3.373,-1.35 3.709,-3.371 l 15.853,-92.061 0.334,0 15.85,92.061 c 0.336,2.021 1.352,3.371 3.712,3.371 l 41.814,0 c 2.02,0 3.033,-1.35 2.36,-3.371 L 47.549,3.373 C 46.873,1.013 45.86,0 43.501,0 L 0,0 Z" /></g><g  transform="translate(781.7741,113.5058)"  id="g124"><path id="path126" style="fill:#f15a2c;fill-opacity:1;fill-rule:nonzero;stroke:none" d="m 0,0 0,14.167 c 0,1.346 -0.673,2.02 -2.023,2.02 l -7.082,0 c -11.464,0 -15.849,-6.743 -15.849,-16.86 0,-10.118 3.712,-15.514 11.467,-15.514 C -5.395,-16.187 0,-10.451 0,0 M 3.373,-50.582 C 1.353,-50.582 0,-49.233 0,-47.21 l 0,9.781 -0.333,0 c -4.723,-10.121 -16.19,-16.526 -30.69,-16.526 -20.569,0 -39.455,12.814 -39.455,49.572 0,41.141 26.978,52.606 53.618,52.606 l 14.837,0 c 1.35,0 2.023,0.673 2.023,2.023 l 0,7.418 c 0,11.467 -4.382,17.2 -19.896,17.2 -11.467,0 -20.229,-3.71 -26.974,-8.432 -2.359,-1.686 -4.389,-1.346 -5.062,1.013 l -13.15,31.36 c -0.674,2.023 -0.337,3.709 1.686,5.059 12.477,8.093 30.013,13.15 51.258,13.15 45.527,0 60.364,-19.557 60.364,-59.013 l 0,-105.211 c 0,-2.023 -1.35,-3.372 -3.373,-3.372 l -41.48,0 z" /></g><g  transform="translate(911.6085,60.9006)"  id="g128"><path id="path130" style="fill:#f15a2c;fill-opacity:1;fill-rule:nonzero;stroke:none" d="m 0,0 c -41.138,0.336 -59.01,14.5 -59.01,60.7 l 0,167.26 c 0,2.024 1.346,3.371 3.366,3.371 l 44.18,0 c 2.023,0 3.369,-1.347 3.369,-3.371 l 0,-166.923 c 0,-11.128 5.062,-16.187 13.154,-16.863 l 2.02,-0.337 c 2.026,0 3.375,-1.683 3.375,-3.709 l 0,-36.755 C 10.454,1.347 9.105,0 7.079,0 L 0,0 Z" /></g></g></g></g></svg>