<?xml version="1.0" encoding="utf-8"?>
<!-- Generator: Adobe Illustrator 22.1.0, SVG Export Plug-In . SVG Version: 6.00 Build 0)  -->
<svg version="1.1" id="Layer_1" xmlns="http://www.w3.org/2000/svg" xmlns:xlink="http://www.w3.org/1999/xlink" x="0px" y="0px"
	 viewBox="0 0 1000 1000" style="enable-background:new 0 0 1000 1000;" xml:space="preserve">
<style type="text/css">
	.st0{fill:#41D87E;}
</style>
<g>
	<g>
		<g>
			<path class="st0" d="M500,980.1c-60.1,0-118.4-11.8-173.2-35c-53-22.4-100.6-54.5-141.5-95.4s-72.9-88.5-95.4-141.5
				c-23.2-54.9-35-113.2-35-173.3c0-60.1,11.8-118.4,35-173.2c22.4-53,54.5-100.6,95.4-141.5c40.9-40.9,88.5-72.9,141.5-95.4
				c54.9-23.2,113.2-35,173.2-35c51.1,0,101.2,8.6,148.9,25.5c21.7,7.7,33.1,31.6,25.4,53.3c-7.7,21.7-31.6,33.1-53.3,25.4
				c-38.7-13.8-79.4-20.7-121-20.7c-199.4,0-361.6,162.2-361.6,361.6S300.6,896.7,500,896.7S861.6,734.4,861.6,535
				c0-23,18.7-41.7,41.7-41.7s41.7,18.7,41.7,41.7c0,60.1-11.8,118.4-35,173.3c-22.4,53-54.5,100.6-95.4,141.5
				c-40.9,40.9-88.5,72.9-141.5,95.4C618.4,968.3,560.1,980.1,500,980.1z"/>
		</g>
	</g>
	<g>
		<g>
			<g>
				<path class="st0" d="M531.1,277.1l259.2,18.6c16.1,1.2,27.5-15.6,20.4-30.2L697.3,31.8c-7.1-14.6-27.3-16-36.3-2.6L515.2,244.4
					C506.1,257.8,514.9,276,531.1,277.1z"/>
			</g>
		</g>
	</g>
</g>
<g>
	<path class="st0" d="M500,553.5H272c-13.8,0-25-11.2-25-25s11.2-25,25-25h228c13.8,0,25,11.2,25,25S513.8,553.5,500,553.5z"/>
</g>
<g>
	<path class="st0" d="M634.4,687.9c-6.4,0-12.8-2.4-17.7-7.3L482.3,546.2c-9.8-9.8-9.8-25.6,0-35.4c9.8-9.8,25.6-9.8,35.4,0
		l134.4,134.4c9.8,9.8,9.8,25.6,0,35.4C647.2,685.5,640.8,687.9,634.4,687.9z"/>
</g>
</svg>
