<?xml version="1.0" encoding="utf-8"?>
<!-- Generator: Adobe Illustrator 19.1.0, SVG Export Plug-In . SVG Version: 6.00 Build 0)  -->
<svg version="1.1" id="Layer_1" xmlns="http://www.w3.org/2000/svg" xmlns:xlink="http://www.w3.org/1999/xlink" x="0px" y="0px"
	 viewBox="0 0 1000 1000" style="enable-background:new 0 0 1000 1000;" xml:space="preserve">
<style type="text/css">
	.st0{opacity:0.5;}
	.st1{fill:#FFFFFF;}
	.st2{fill:#3C2415;}
	.st3{fill:#802528;}
	.st4{fill:#912526;}
	.st5{fill:#A12524;}
	.st6{fill:#B12421;}
	.st7{fill:#C2241F;}
	.st8{fill:#D2241D;}
	.st9{fill:#E2231A;}
	.st10{fill:#FF5000;}
	.st11{fill:#F64F00;}
	.st12{fill:#EC4E00;}
	.st13{fill:#E34C00;}
	.st14{fill:#D94B00;}
	.st15{fill:#D04900;}
	.st16{fill:#C64800;}
	.st17{fill:#BD4700;}
	.st18{fill:#FFDD00;}
	.st19{fill:#F9CA00;}
	.st20{fill:#F3B600;}
	.st21{fill:#EEA300;}
	.st22{fill:#E89000;}
	.st23{fill:#E27C00;}
	.st24{fill:#1D5632;}
	.st25{fill:#3B7625;}
	.st26{fill:#599619;}
	.st27{fill:#77B60C;}
	.st28{fill:#95D600;}
	.st29{fill:#0075C9;}
	.st30{fill:#0068B3;}
	.st31{fill:#005C9E;}
	.st32{fill:#005089;}
	.st33{fill:#004373;}
	.st34{fill:#00375E;}
	.st35{fill:#002B49;}
	.st36{fill:#3E1151;}
	.st37{fill:#461358;}
	.st38{fill:#4D155F;}
	.st39{fill:#551866;}
	.st40{fill:#5D1A6D;}
	.st41{fill:#641D74;}
	.st42{fill:#6C1F7B;}
	.st43{fill:#732282;}
</style>
<g>
	<g class="st0">
		<path class="st1" d="M225.4,58.7h549.2c22.4,0,40.6,22.4,40.6,50v712.6H184.7V108.7C184.7,81.1,202.9,58.7,225.4,58.7L225.4,58.7z
			"/>
	</g>
	<path class="st2" d="M823.1,830.9H176.9V99c0-27.6,18.2-50,40.6-50h565c22.4,0,40.6,22.4,40.6,50L823.1,830.9L823.1,830.9z
		 M192.6,811.6h614.8V111.3c0-23.7-15.7-43-34.9-43H227.6c-19.3,0-34.9,19.3-34.9,43V811.6z"/>
	<rect x="184.7" y="164.3" class="st2" width="630.5" height="12.9"/>
	<ellipse class="st3" cx="257.5" cy="170.7" rx="15.3" ry="30.4"/>
	<ellipse class="st4" cx="302.1" cy="170.7" rx="15.3" ry="30.4"/>
	<ellipse class="st5" cx="346.6" cy="170.7" rx="15.3" ry="30.4"/>
	<ellipse class="st6" cx="391" cy="170.7" rx="15.3" ry="30.4"/>
	<ellipse class="st7" cx="435.6" cy="170.7" rx="15.3" ry="30.4"/>
	<ellipse class="st8" cx="480.1" cy="170.7" rx="15.3" ry="30.4"/>
	<ellipse class="st9" cx="524.6" cy="170.7" rx="15.3" ry="30.4"/>
	<rect x="184.7" y="273.7" class="st2" width="630.5" height="12.9"/>
	<ellipse class="st10" cx="391" cy="280.1" rx="15.3" ry="30.4"/>
	<ellipse class="st11" cx="440.9" cy="280.1" rx="15.3" ry="30.4"/>
	<ellipse class="st12" cx="490.6" cy="280.1" rx="15.3" ry="30.4"/>
	<ellipse class="st13" cx="540.3" cy="280.1" rx="15.3" ry="30.4"/>
	<ellipse class="st14" cx="590.1" cy="280.1" rx="15.3" ry="30.4"/>
	<ellipse class="st15" cx="639.9" cy="280.1" rx="15.3" ry="30.4"/>
	<ellipse class="st16" cx="689.6" cy="280.1" rx="15.3" ry="30.4"/>
	<ellipse class="st17" cx="739.4" cy="280.1" rx="15.3" ry="30.4"/>
	<rect x="184.7" y="382.4" class="st2" width="630.5" height="12.9"/>
	<ellipse class="st18" cx="500" cy="390.2" rx="15.3" ry="30.4"/>
	<ellipse class="st19" cx="547.9" cy="389.9" rx="15.3" ry="30.4"/>
	<ellipse class="st20" cx="595.7" cy="389.6" rx="15.3" ry="30.4"/>
	<ellipse class="st21" cx="643.6" cy="389.4" rx="15.3" ry="30.4"/>
	<ellipse class="st22" cx="691.5" cy="389.1" rx="15.3" ry="30.4"/>
	<ellipse class="st23" cx="739.4" cy="388.9" rx="15.3" ry="30.4"/>
	<rect x="184.7" y="492.5" class="st2" width="630.5" height="12.9"/>
	<ellipse class="st24" cx="257.5" cy="498.9" rx="15.3" ry="30.4"/>
	<ellipse class="st25" cx="299.8" cy="498.9" rx="15.3" ry="30.4"/>
	<ellipse class="st26" cx="342" cy="498.9" rx="15.3" ry="30.4"/>
	<ellipse class="st27" cx="384.2" cy="498.9" rx="15.3" ry="30.4"/>
	<ellipse class="st28" cx="426.5" cy="498.9" rx="15.3" ry="30.4"/>
	<rect x="184.7" y="601.9" class="st2" width="630.5" height="12.9"/>
	<ellipse class="st29" cx="441.7" cy="608.3" rx="15.3" ry="30.4"/>
	<ellipse class="st30" cx="491.3" cy="608.3" rx="15.3" ry="30.4"/>
	<ellipse class="st31" cx="541" cy="608.3" rx="15.3" ry="30.4"/>
	<ellipse class="st32" cx="590.5" cy="608.3" rx="15.3" ry="30.4"/>
	<ellipse class="st33" cx="640.2" cy="608.3" rx="15.3" ry="30.4"/>
	<ellipse class="st34" cx="689.7" cy="608.3" rx="15.3" ry="30.4"/>
	<ellipse class="st35" cx="739.4" cy="608.3" rx="15.3" ry="30.4"/>
	<rect x="184.7" y="711.2" class="st2" width="630.5" height="12.9"/>
	<ellipse class="st36" cx="257.5" cy="717.7" rx="15.3" ry="30.4"/>
	<ellipse class="st37" cx="307.3" cy="717.7" rx="15.3" ry="30.4"/>
	<ellipse class="st38" cx="357.1" cy="717.7" rx="15.3" ry="30.4"/>
	<ellipse class="st39" cx="406.8" cy="717.7" rx="15.3" ry="30.4"/>
	<ellipse class="st40" cx="456.5" cy="717.7" rx="15.3" ry="30.4"/>
	<ellipse class="st41" cx="506.3" cy="717.7" rx="15.3" ry="30.4"/>
	<ellipse class="st42" cx="556.1" cy="717.7" rx="15.3" ry="30.4"/>
	<ellipse class="st43" cx="605.8" cy="717.7" rx="15.3" ry="30.4"/>
	<g>
		<rect x="184.7" y="821.2" class="st2" width="630.5" height="54.6"/>
		<path class="st2" d="M823.1,885.5H176.9v-73.9h646.2L823.1,885.5z M192.6,866.1h614.8v-35.2H192.6V866.1z"/>
	</g>
	<path class="st2" d="M187.4,961.5c-5.8,0-10.5-5.8-10.5-12.9V820.4h21v128.1C197.9,955.7,193.2,961.5,187.4,961.5z"/>
	<path class="st2" d="M812.6,961.5c-5.8,0-10.5-5.8-10.5-12.9V820.4h21v128.1C823.1,955.7,818.4,961.5,812.6,961.5L812.6,961.5z"/>
</g>
</svg>
