<?xml version="1.0" encoding="utf-8"?>
<!-- Generator: Adobe Illustrator 19.1.0, SVG Export Plug-In . SVG Version: 6.00 Build 0)  -->
<svg version="1.1" id="Layer_1" xmlns="http://www.w3.org/2000/svg" xmlns:xlink="http://www.w3.org/1999/xlink" x="0px" y="0px"
	 viewBox="0 0 1000 1000" style="enable-background:new 0 0 1000 1000;" xml:space="preserve">
<style type="text/css">
	.st0{fill:#E8501F;}
	.st1{fill:#FFFFFF;}
	.st2{fill:#F4F4F4;}
</style>
<g>
	<path class="st0" d="M222.7,950.5c-23,0-41.8-18.7-41.8-41.8V234.3c0-106.3,86.5-192.8,192.8-192.8h252.6
		c106.3,0,192.8,86.5,192.8,192.8v674.4c0,23-18.7,41.8-41.8,41.8H222.7z"/>
	<path class="st1" d="M626.3,51.5c101,0,182.8,81.8,182.8,182.8v674.4c0,17.6-14.2,31.8-31.8,31.8H222.7
		c-17.6,0-31.8-14.2-31.8-31.8V234.3c0-101,81.8-182.8,182.8-182.8H626.3 M626.3,31.5H373.7c-27.4,0-53.9,5.4-78.9,15.9
		c-24.2,10.2-45.8,24.8-64.5,43.5s-33.2,40.3-43.5,64.5c-10.6,25-15.9,51.6-15.9,78.9v674.4c0,28.6,23.2,51.8,51.8,51.8h554.6
		c28.6,0,51.8-23.2,51.8-51.8V234.3c0-27.4-5.4-53.9-15.9-78.9c-10.2-24.2-24.8-45.8-43.5-64.5c-18.6-18.6-40.3-33.2-64.5-43.5
		C680.2,36.9,653.7,31.5,626.3,31.5L626.3,31.5z"/>
</g>
<path class="st2" d="M776.5,408.1H223.4V241.6c0-86.7,70.3-157,157-157h239.2c86.7,0,157,70.3,157,157V408.1z"/>
<g>
	<g>
		<path class="st1" d="M695.9,811.4h-114c-7.1,0-12.9-5.8-12.9-12.9l0,0c0-7.1,5.8-12.9,12.9-12.9h114c7.1,0,12.9,5.8,12.9,12.9l0,0
			C708.8,805.6,703,811.4,695.9,811.4z"/>
		<circle class="st1" cx="638.9" cy="755.1" r="16.8"/>
		<path class="st1" d="M655.8,840c0,16.8-7.5,16.8-16.8,16.8s-16.8-7.5-16.8-16.8s7.5-16.8,16.8-16.8S655.8,830.7,655.8,840z"/>
	</g>
	<g>
		<path class="st1" d="M431,798.5L431,798.5c0,6.9-4.8,12.5-10.8,12.5H302c-6,0-10.8-5.6-10.8-12.5l0,0c0-6.9,4.8-12.5,10.8-12.5
			h118.1C426.1,786,431,791.6,431,798.5z"/>
	</g>
	<g>
		<path class="st1" d="M325.2,486.7c1.5,0,2.8,0.7,3.6,1.9l18.7,27.3c5.2,7.6,9.6,14.6,14.2,22.1h0.9c4.6-8.1,9.3-15.1,13.9-22.4
			l18.4-27c0.8-1.2,2.2-1.9,3.6-1.9h16.9c3.5,0,5.6,3.8,3.5,6.6l-41.3,56.6c-1,1.4-1.1,3.3,0,4.8l43,61.1c2,2.8-0.1,6.5-3.6,6.5
			h-18.5c-1.5,0-2.8-0.7-3.6-1.9l-19.3-28.7c-5.5-7.8-10.1-15.4-15.1-23.5H360c-4.6,8.1-9.6,15.4-14.8,23.5l-19,28.6
			c-0.8,1.2-2.2,1.9-3.6,1.9h-17.5c-3.5,0-5.6-3.8-3.6-6.6l43.4-60.3c1-1.4,1-3.3,0-4.8L303.8,493c-2-2.8,0.1-6.6,3.6-6.6h17.8
			V486.7z"/>
	</g>
	<g>
		<path class="st1" d="M649.4,491.9v47.3c0,2.8,2.3,5.2,5.2,5.2h45c2.8,0,5.2,2.3,5.2,5.2v9.6c0,2.8-2.3,5.2-5.2,5.2h-45
			c-2.8,0-5.2,2.3-5.2,5.2v47.8c0,2.8-2.3,5.2-5.2,5.2h-10.6c-2.8,0-5.2-2.3-5.2-5.2v-47.8c0-2.8-2.3-5.2-5.2-5.2h-45
			c-2.8,0-5.2-2.3-5.2-5.2v-9.6c0-2.8,2.3-5.2,5.2-5.2h45c2.8,0,5.2-2.3,5.2-5.2v-47.3c0-2.8,2.3-5.2,5.2-5.2h10.6
			C647.1,486.7,649.4,489,649.4,491.9z"/>
	</g>
</g>
<g>
	<path class="st0" d="M410.1,173.9c0-14.2,3.9-25.8,11.8-34.8s18.5-13.5,31.9-13.5s24,4.4,32,13.2c8,8.8,12,20.7,12,35.7v11.7
		c0,14.4-4,26-11.9,34.8s-18.5,13.2-31.8,13.2c-13.2,0-23.8-4.4-31.9-13.2s-12.1-20.7-12.1-35.8V173.9z M439.6,186.3
		c0,6.4,1.4,11.5,4.1,15.3s6.2,5.7,10.3,5.7c4.3,0,7.7-2,10.2-5.9c2.5-4,3.8-9.1,3.8-15.6v-11.9c0-6.2-1.3-11.3-3.9-15.3
		s-6-6-10.4-6c-4.3,0-7.7,2-10.3,6c-2.6,4-3.9,9.3-3.9,15.8L439.6,186.3L439.6,186.3z M462.2,345.1l-21.5-12.2l95.8-182.6l21.7,12.2
		L462.2,345.1z M502.2,305.3c0-14.4,4-26.1,12-34.9s18.6-13.2,31.8-13.2c13.3,0,23.9,4.4,31.9,13.1c8,8.7,12,20.7,12,35.9v11.7
		c0,14.3-3.9,25.9-11.7,34.7c-7.8,8.8-18.5,13.2-31.9,13.2c-13.6,0-24.3-4.4-32.3-13.3c-7.9-8.9-11.9-20.6-11.9-35.3v-11.9H502.2z
		 M531.9,317.9c0,6,1.4,11,4.3,15.1c2.8,4.1,6.2,6.1,10.2,6.1c8.9,0,13.5-6.4,14-19.1v-14.6c0-6.3-1.3-11.4-3.9-15.3
		c-2.6-3.9-6.1-5.9-10.3-5.9c-9.4,0-14.1,8.2-14.1,24.5v9.2H531.9z"/>
</g>
</svg>
