<?xml version="1.0" encoding="utf-8"?>
<!-- Generator: Adobe Illustrator 22.1.0, SVG Export Plug-In . SVG Version: 6.00 Build 0)  -->
<svg version="1.1" id="Camada_1" xmlns="http://www.w3.org/2000/svg" xmlns:xlink="http://www.w3.org/1999/xlink" x="0px" y="0px"
	 viewBox="0 0 1000 1000" style="enable-background:new 0 0 1000 1000;" xml:space="preserve">
<style type="text/css">
	.st0{fill:#141E1B;}
	.st1{fill:#233530;}
	.st2{fill:#20D1AF;}
	.st3{fill:#00AC8E;}
</style>
<g>
	<path class="st0" d="M973.2,541.7L300.8,930.9c-11,6.4-25.2,2.6-31.6-8.5L37.5,522.1c-6.4-11-2.6-25.2,8.4-31.6l672.4-389.2
		c11-6.4,25.2-2.6,31.6,8.4L981.6,510C988,521.1,984.3,535.3,973.2,541.7z"/>
	<path class="st1" d="M954.1,509.4L281.6,898.6c-11,6.4-25.2,2.6-31.6-8.4L18.4,489.9c-6.4-11-2.6-25.2,8.4-31.6L699.2,69.1
		c11-6.4,25.2-2.6,31.6,8.4l231.7,400.3C968.9,488.9,965.1,503,954.1,509.4z"/>
	<path class="st2" d="M745.5,225.3L345.2,456.9c-11,6.4-25.2,2.6-31.6-8.4l-37-63.9c-6.4-11-2.6-25.2,8.4-31.6l400.3-231.7
		c11-6.4,25.2-2.6,31.6,8.4l37,63.9C760.3,204.7,756.5,218.9,745.5,225.3L745.5,225.3z"/>
	<path class="st2" d="M266.1,502.2l-128.2,74.2c-11,6.4-25.2,2.6-31.6-8.4l-37-63.9c-6.4-11-2.6-25.2,8.4-31.6L206,398.3
		c11-6.4,25.2-2.6,31.6,8.4l37,63.9C280.9,481.6,277.2,495.8,266.1,502.2L266.1,502.2z"/>
	<path class="st3" d="M232.1,656.6L196,677.5c-11,6.4-25.2,2.6-31.6-8.4l-14-24.2c-6.4-11-2.6-25.2,8.4-31.6l36.1-20.9
		c11-6.4,25.2-2.6,31.6,8.4l14,24.2C246.9,636,243.1,650.2,232.1,656.6z"/>
	<path class="st3" d="M280.3,739.9l-36.1,20.9c-11,6.4-25.2,2.6-31.6-8.4l-14-24.2c-6.4-11-2.6-25.2,8.4-31.6l36.1-20.9
		c11-6.4,25.2-2.6,31.6,8.4l14,24.2C295.2,719.4,291.4,733.5,280.3,739.9z"/>
	<path class="st3" d="M328.6,823.3l-36.1,20.9c-11,6.4-25.2,2.6-31.6-8.4l-14-24.2c-6.4-11-2.6-25.2,8.4-31.6l36.1-20.9
		c11-6.4,25.2-2.6,31.6,8.4l14,24.2C343.4,802.7,339.6,816.9,328.6,823.3z"/>
	<path class="st3" d="M324.8,602.9l-36.1,20.9c-11,6.4-25.2,2.6-31.6-8.4l-14-24.2c-6.4-11-2.6-25.2,8.4-31.6l36.1-20.9
		c11-6.4,25.2-2.6,31.6,8.4l14,24.2C339.6,582.4,335.8,596.5,324.8,602.9z"/>
	<path class="st3" d="M705.9,382.4l-36.1,20.9c-11,6.4-25.2,2.6-31.6-8.4l-14-24.2c-6.4-11-2.6-25.2,8.4-31.6l36.1-20.9
		c11-6.4,25.2-2.6,31.6,8.4l14,24.2C720.7,361.8,716.9,376,705.9,382.4z"/>
	<path class="st3" d="M607.6,439.3l-36.1,20.9c-11,6.4-25.2,2.6-31.6-8.4l-14-24.2c-6.4-11-2.6-25.2,8.4-31.6l36.1-20.9
		c11-6.4,25.2-2.6,31.6,8.4l14,24.2C622.4,418.7,618.6,432.9,607.6,439.3z"/>
	<path class="st3" d="M655.8,522.6l-36.1,20.9c-11,6.4-25.2,2.6-31.6-8.4l-14-24.2c-6.4-11-2.6-25.2,8.4-31.6l36.1-20.9
		c11-6.4,25.2-2.6,31.6,8.4l14,24.2C670.6,502.1,666.9,516.2,655.8,522.6z"/>
	<path class="st3" d="M439,535.9L403,556.7c-11,6.4-25.2,2.6-31.6-8.4l-14-24.2c-6.4-11-2.6-25.2,8.4-31.6l36.1-20.9
		c11-6.4,25.2-2.6,31.6,8.4l14,24.2C453.8,515.3,450.1,529.5,439,535.9z"/>
	<path class="st3" d="M607.7,664.6l-36.1,20.9c-11,6.4-25.2,2.6-31.6-8.4l-14-24.2c-6.4-11-2.6-25.2,8.4-31.6l36.1-20.9
		c11-6.4,25.2-2.6,31.6,8.4l14,24.2C622.5,644.1,618.7,658.2,607.7,664.6z"/>
	<path class="st3" d="M558.6,579.8L452,641.6c-11,6.4-25.2,2.6-31.6-8.4l-14-24.2c-6.4-11-2.6-25.2,8.4-31.6l106.6-61.7
		c11-6.4,25.2-2.6,31.6,8.4l14,24.2C573.4,559.3,569.7,573.4,558.6,579.8L558.6,579.8z"/>
	<path class="st3" d="M803.6,325.8l-36.1,20.9c-11,6.4-25.2,2.6-31.6-8.4l-14-24.2c-6.4-11-2.6-25.2,8.4-31.6l36.1-20.9
		c11-6.4,25.2-2.6,31.6,8.4l14,24.2C818.4,305.3,814.6,319.4,803.6,325.8z"/>
	<path class="st3" d="M814.6,344.9l-133.8,77.4c-11,6.4-14.8,20.6-8.4,31.6l25,43.2c6.4,11.1,2.6,25.4-8.5,31.8l-58.1,33.6
		c-11,6.4-14.8,20.6-8.4,31.6l14,24.2c6.4,11,20.6,14.8,31.6,8.4L900,492.5c11-6.4,14.8-20.6,8.4-31.6l-62.2-107.4
		C839.8,342.3,825.7,338.5,814.6,344.9L814.6,344.9z"/>
	<path class="st3" d="M373,686.3L337,707.2c-11,6.4-25.2,2.6-31.6-8.4l-14-24.2c-6.4-11-2.6-25.2,8.4-31.6l36.1-20.9
		c11-6.4,25.2-2.6,31.6,8.4l14,24.2C387.9,665.7,384.1,679.9,373,686.3z"/>
	<path class="st3" d="M421.3,769.7l-36.1,20.9c-11,6.4-25.2,2.6-31.6-8.4l-14-24.2c-6.4-11-2.6-25.2,8.4-31.6l36.1-20.9
		c11-6.4,25.2-2.6,31.6,8.4l14,24.2C436.1,749.1,432.3,763.3,421.3,769.7z"/>
</g>
</svg>
