<?xml version="1.0" encoding="utf-8"?>
<!-- Generator: Adobe Illustrator 19.1.0, SVG Export Plug-In . SVG Version: 6.00 Build 0)  -->
<svg version="1.1" id="Layer_1" xmlns="http://www.w3.org/2000/svg" xmlns:xlink="http://www.w3.org/1999/xlink" x="0px" y="0px"
	 viewBox="0 0 1000 1000" style="enable-background:new 0 0 1000 1000;" xml:space="preserve">
<style type="text/css">
	.st0{fill:#675DC6;}
	.st1{fill:#FFFFFF;}
</style>
<g>
	<g>
		<g>
			<path class="st0" d="M693.3,693.7c-12-118.4-51.6-203.5-114.6-246l-13.8-9.3l12.9-10.6c2-1.6,14.4-12.9,22-21.9
				c25.9-30.9,40.2-70.4,40.2-111.2c0-15.1-2-30.2-5.9-44.8l-2.3-8.7l7.5-5c22.5-15,48.7-22.9,75.8-22.9c23.7,0,47.1,6.3,67.7,18.2
				c65,37.5,87.3,120.9,49.8,185.9c-24.2,42-69.5,68.1-118,68.1c0,0,0,0,0,0c-0.7,0-1.4,0-2.1,0c37,50.9,38.9,123.2,5,211.5
				L698.6,746L693.3,693.7z"/>
			<path class="st1" d="M714.9,225.7c20.9,0,42.1,5.3,61.5,16.5c59.1,34.1,79.4,109.7,45.2,168.9c-22.9,39.7-64.4,61.8-107.2,61.8
				c-12,0-24.1-1.7-35.8-5.3c61.5,51.5,61.8,134.1,27.1,224.9c-12.5-123-53.6-210.2-120.1-255.1c2.3-1.9,15.3-13.7,23.6-23.5
				c27.2-32.4,43.2-74.1,43.2-119.2c0-16.6-2.2-32.7-6.4-48.1C666.5,232.9,690.5,225.7,714.9,225.7 M714.9,200.7
				c-29.5,0-58.1,8.7-82.7,25l-15,10l4.7,17.4c3.7,13.6,5.5,27.6,5.5,41.6c0,37.8-13.3,74.5-37.3,103.2
				c-6.9,8.2-18.4,18.7-20.4,20.3L544,439.4l27.7,18.7c59.8,40.3,97.5,122.3,109.2,236.9l19.5,41.7l28.7-35.3
				c19.6-51.2,27.7-97.8,24.1-138.3c-2.2-24.5-8.6-46.7-19-66.5c18.8-2.5,37.1-8.6,53.7-18c23-13,42.2-32,55.5-55.1
				c19.8-34.4,25.1-74.4,14.8-112.8c-10.3-38.3-34.9-70.4-69.2-90.2C766.3,207.6,740.8,200.7,714.9,200.7L714.9,200.7z"/>
		</g>
		<g>
			<path class="st0" d="M217.1,693.9c-32.6-86.9-30.3-158.1,6.2-208.5c-0.7,0-1.4,0-2.1,0c-48.5,0-93.7-26.1-118-68.1
				C65.6,352.3,88,268.9,153,231.4c20.6-11.9,44.1-18.2,67.8-18.2c26.5,0,52.2,7.6,74.4,22l7.7,5l-2.4,8.8
				c-4.1,14.9-6.2,30.2-6.2,45.6c0,41.2,14.6,81,41,112.2l0.2,0.3c6.7,8.3,18.9,19,21,20.7l12.9,10.6l-13.8,9.3
				c-62.5,42.2-102,126.2-114.4,243.1l-5.6,52.6L217.1,693.9z"/>
			<path class="st1" d="M220.8,225.7c23.9,0,47.5,7,67.6,20c-4.3,15.6-6.6,32-6.6,48.9c0,45.6,16.3,87.7,44,120.3
				c7.6,9.4,20.5,20.6,22.7,22.5c-65.9,44.5-107,130.6-119.8,252.1c-33.6-89.6-32.6-171,28.2-221.9c-11.8,3.6-23.8,5.3-35.8,5.3
				c-42.7,0-84.3-22.2-107.2-61.8c-34.1-59.1-13.9-134.7,45.2-168.9C178.7,231,199.9,225.7,220.8,225.7 M220.8,200.7
				C220.8,200.7,220.8,200.7,220.8,200.7c-25.9,0-51.5,6.9-74,19.9c-34.4,19.8-59,51.9-69.2,90.2c-10.3,38.3-5,78.4,14.8,112.8
				c13.3,23,32.5,42,55.5,55.1c16.6,9.4,34.9,15.5,53.7,18c-10.3,19.4-16.6,41.1-18.9,65c-1.4,15-1.3,30.9,0.5,47.5
				c4.8,44.4,20.7,86.8,45.6,123.9l7,10.4l18-51.3c11.9-113.1,49.6-194,108.9-234l27.7-18.7l-25.7-21.3
				c-3.1-2.5-13.7-12.1-19.2-18.9l-0.2-0.3l-0.2-0.3c-24.5-28.8-38.1-65.8-38.1-104.1c0-14.2,1.9-28.5,5.7-42.3l4.8-17.6l-15.3-10
				C277.8,209,249.7,200.7,220.8,200.7L220.8,200.7L220.8,200.7z"/>
		</g>
	</g>
	<g>
		<path class="st0" d="M467.8,838.4c-71.9,0-127-26.1-160.5-47.9c-36.5-23.8-55.9-47.5-56.7-48.5l-2.8-3.4v-4.4
			c0-84.6,17.4-157.5,50.3-210.8c24.5-39.8,57.2-68.3,95.7-83.9c-20.3-10.4-38.3-25-52.8-42.9c-23.1-28.7-35.9-64.9-35.9-101.9
			c0-89.7,72.9-162.6,162.6-162.6s162.6,72.9,162.6,162.6c0,37-12.7,73.1-35.9,101.9c-15,18.7-34.1,33.8-55.4,44.2
			c38.7,17.4,71.6,46.3,96.4,85c34.6,54.1,52.2,124.2,52.2,208.4v3.7l-2,3.1c-0.7,1-16.8,25.3-51.8,49.4
			C602,812.2,547.2,838.4,467.8,838.4z"/>
		<path class="st1" d="M467.8,144.5c82.9,0,150.1,67.2,150.1,150.1c0,71.2-49.6,130.8-116.1,146.2
			c97.3,25.1,173.5,121.6,173.5,293.3c0,0-60,91.8-207.5,91.8c-133.3,0-207.5-91.8-207.5-91.8c0-171.7,71.3-275,173.5-293.3
			c-66.5-15.4-116.1-75-116.1-146.2C317.7,211.7,384.9,144.5,467.8,144.5 M467.8,119.5c-23.6,0-46.6,4.6-68.2,13.8
			c-20.9,8.8-39.6,21.4-55.7,37.5c-16.1,16.1-28.7,34.8-37.5,55.7c-9.1,21.6-13.8,44.5-13.8,68.2c0,20.3,3.5,40.2,10.3,59.2
			c6.6,18.3,16.1,35.3,28.4,50.5c10.4,13,22.7,24.4,36.2,33.8c-31.7,17.6-58.8,44.1-80.1,78.6c-16.9,27.4-29.9,59.6-38.7,95.7
			c-8.9,36.8-13.4,77.7-13.4,121.6v8.8l5.6,6.9c0.9,1.1,21.5,26.3,59.6,51.1c22.2,14.5,46,26,70.8,34.3c31,10.4,63.5,15.6,96.6,15.6
			c36.3,0,70.7-5.2,102.4-15.6c25.6-8.4,49.4-20,70.8-34.7c36.5-25,53.4-50.1,55.2-52.8l4.1-6.2v-7.4c0-43.7-4.8-84.4-14.2-121
			c-9.1-35.2-22.5-66.9-40-94.1c-21.5-33.6-49-60.3-80.9-78.9c14.7-9.8,27.9-21.9,39.1-35.8c12.2-15.2,21.8-32.2,28.4-50.5
			c6.8-19,10.3-38.9,10.3-59.2c0-23.6-4.6-46.6-13.8-68.2c-8.8-20.9-21.4-39.6-37.5-55.7c-16.1-16.1-34.8-28.7-55.7-37.5
			C514.4,124.1,491.4,119.5,467.8,119.5L467.8,119.5z"/>
	</g>
</g>
<g>
	<path class="st0" d="M508.7,915.7c-0.9,0-1.8-0.1-2.7-0.2l-68.5-11.6l4.4-78.3l193.2-154.2c5.3-4.2,7.9-11.2,6.7-18.2
		c-8.3-49.1,10.7-99,49.6-130c24.5-19.6,54-29.9,85.4-29.9c21.2,0,42.3,5,61.2,14.4c19.9,9.9,36.7,24.1,49.8,42.3
		c19.3,26.6,27.7,60.5,23.8,95.4s-19.7,66.1-44.4,87.8c-25.1,22-57.1,34.1-90.3,34.1c-17.3,0-34.2-3.2-50.3-9.5
		c-1.8-0.7-3.6-1-5.5-1c-3.4,0-6.7,1.2-9.4,3.3c-2.6,2.1-5.7,3.1-9.1,3.1c-0.5,0-1,0-1.5-0.1l-10.7-1l-0.9,4.2
		c-1.5,6.8-7.3,11.4-14.2,11.4c-1.1,0-2.2-0.1-3.3-0.3l-14.6-3.1l-3.7,24.6c-1.1,7.3-7.1,12.5-14.4,12.5c-0.7,0-1.4-0.1-2.2-0.2
		l-9.7-1.4l-3.6,14.1c-1.7,6.5-7.4,10.9-14.1,10.9l-0.4,0l-14.1-0.4l-9.2,18c-2.5,4.8-7.4,7.8-13,7.8c-0.4,0-0.7,0-1.1,0l-11.9-0.9
		l-7.1,11.6c-1.7,2.7-4.2,4.8-7.1,5.9l-17.7,6.7l-4.9,21C521.3,911.2,515.6,915.7,508.7,915.7C508.7,915.7,508.7,915.7,508.7,915.7z
		 M800.3,573c-8.8,0-17.1,2.9-24,8.4c-8,6.4-13.1,15.6-14.2,25.8c-1.1,10.2,1.8,20.3,8.2,28.3c7.3,9.2,18.3,14.5,30.1,14.5
		c8.8,0,17.1-2.9,24-8.4c16.6-13.2,19.3-37.5,6.1-54.1C823.1,578.3,812.1,573,800.3,573z"/>
	<path class="st1" d="M776.8,503.2c39.2,0,77.9,18,103,52.6c36.8,50.7,28.1,128.5-19.1,169.8c-24.3,21.3-54.1,31.6-83.7,31.6
		c-15.9,0-31.8-3-46.7-8.8c-3-1.2-6.1-1.7-9.1-1.7c-5.6,0-11.1,1.9-15.7,5.5c-0.8,0.6-1.8,1-2.9,1c-0.2,0-0.4,0-0.5,0l-15.3-1.4
		c-0.2,0-0.4,0-0.5,0c-2.2,0-4,1.4-4.5,3.6l-2,8.8c-0.5,2.2-2.3,3.6-4.5,3.6c-0.4,0-0.8,0-1.2-0.1l-20-4.2c-0.4-0.1-0.8-0.1-1.2-0.1
		c-2.4,0-4.2,1.5-4.6,4l-4.6,30.1c-0.4,2.4-2.2,4-4.6,4c-0.3,0-0.5,0-0.8-0.1l-14.3-2c-0.3,0-0.5-0.1-0.8-0.1
		c-2.2,0-3.9,1.3-4.4,3.4l-4.8,18.7c-0.5,2.1-2.3,3.4-4.4,3.4c0,0-0.1,0-0.1,0l-17.5-0.4c0,0-0.1,0-0.1,0c-1.8,0-3.3,0.9-4.1,2.4
		l-10.8,21.1c-0.8,1.5-2.3,2.4-4.1,2.4c-0.1,0-0.3,0-0.4,0l-15.1-1.1c-0.1,0-0.3,0-0.4,0c-1.7,0-3.1,0.7-3.9,2.1l-8.9,14.5
		c-0.5,0.8-1.3,1.4-2.1,1.8l-20.6,7.7c-1.4,0.5-2.4,1.7-2.7,3.3l-5.5,23.8c-0.5,2.2-2.3,3.6-4.5,3.6c-0.3,0-0.6,0-1-0.1L448,895.5
		l3.6-65l189.7-151.4c8.3-6.6,12.1-17.2,10.3-27.7c-7.4-44,8.6-90.7,46-120.5C721.1,512.3,749,503.2,776.8,503.2 M800.3,660
		c10.6,0,21.3-3.5,30.2-10.6c20.9-16.7,24.4-47.2,7.7-68.2c-9.6-12-23.7-18.3-37.9-18.3c-10.6,0-21.3,3.5-30.2,10.6
		c-20.9,16.7-24.4,47.2-7.7,68.2C772,653.8,786.1,660,800.3,660 M776.8,483.2c-16.3,0-32.3,2.7-47.7,8
		c-15.9,5.5-30.7,13.6-43.9,24.1c-41.7,33.3-62.1,86.8-53.2,139.5c0.6,3.4-0.6,6.8-3.1,8.7L439.2,814.9l-7,5.6l-0.5,8.9l-3.6,65
		l-1,17.8l17.6,3l59.7,10.1c1.4,0.2,2.9,0.4,4.3,0.4c11.5,0,21.4-7.8,24-19l3.7-15.8l12.7-4.8c5-1.9,9.3-5.4,12.1-10l4-6.4l5.9,0.4
		c0.6,0,1.2,0.1,1.8,0.1c9.3,0,17.7-5.1,21.9-13.3l6.4-12.4l7.9,0.2c0.2,0,0.4,0,0.6,0c11.4,0,21-7.4,23.8-18.4l1.4-5.4l0.9,0.1
		c1.2,0.2,2.4,0.2,3.5,0.2c12.3,0,22.5-8.8,24.3-21l2.1-14.1l4.3,0.9c1.8,0.4,3.6,0.6,5.4,0.6c10,0,18.8-5.9,22.6-14.8l2.3,0.2
		c0.8,0.1,1.6,0.1,2.4,0.1c5.6,0,11.1-1.9,15.4-5.3c0.9-0.7,2-1.1,3.2-1.1c0.6,0,1.2,0.1,1.8,0.3c17.3,6.8,35.4,10.2,54,10.2
		c35.6,0,70-13,96.9-36.6c13.5-11.8,24.5-26.3,32.8-43c7.9-15.9,12.9-33.1,14.9-51.2c2-18,1-35.9-3.2-53.2
		c-4.4-18.1-11.9-34.7-22.4-49.2c-13.9-19.2-32.4-34.9-53.5-45.4C822.2,488.5,799.5,483.2,776.8,483.2L776.8,483.2z M800.3,640
		c-8.7,0-16.9-3.9-22.3-10.7c-4.7-6-6.9-13.4-6-21c0.9-7.6,4.6-14.3,10.5-19.1c5.1-4.1,11.2-6.2,17.7-6.2c8.7,0,16.9,3.9,22.3,10.7
		c4.7,6,6.9,13.4,6,21c-0.9,7.6-4.6,14.3-10.5,19.1C813,637.9,806.9,640,800.3,640L800.3,640z"/>
</g>
</svg>
