<?xml version="1.0" encoding="utf-8"?>
<!-- Generator: Adobe Illustrator 19.1.0, SVG Export Plug-In . SVG Version: 6.00 Build 0)  -->
<svg version="1.1" id="Layer_1" xmlns="http://www.w3.org/2000/svg" xmlns:xlink="http://www.w3.org/1999/xlink" x="0px" y="0px"
	 viewBox="0 0 1000 1000" style="enable-background:new 0 0 1000 1000;" xml:space="preserve">
<style type="text/css">
	.st0{fill:#D60057;}
	.st1{fill:#FFF9CF;}
	.st2{fill:none;stroke:#E2E71F;stroke-width:30;stroke-linecap:round;stroke-miterlimit:10;}
	.st3{fill:none;stroke:#231F20;stroke-width:20;stroke-linecap:round;stroke-miterlimit:10;}
</style>
<circle class="st0" cx="500" cy="350" r="154"/>
<g>
	<path class="st1" d="M731.8,47.1H268.3c-22.9,0-41.5,18.6-41.5,41.5v851.2l75.8-105.1l65.8,91.3l65.8-91.3L500,926l65.8-91.3
		l65.8,91.3l65.8-91.3l0,0l75.9,105.2V88.6C773.3,65.7,754.7,47.1,731.8,47.1z M500,488.1c-76.3,0-138.1-61.8-138.1-138.1
		S423.7,211.9,500,211.9S638.1,273.7,638.1,350S576.3,488.1,500,488.1z"/>
	<path class="st0" d="M722.7,73.7c16.7,0,30.3,13.6,30.3,30.3v788.4l-63.2-87.7l-63.2,87.7l-63.2-87.7L500,892.3l-63.2-87.7
		l-63.2,87.7l-63.2-87.7L247,892.3V103.9c0-16.7,13.6-30.3,30.3-30.3L722.7,73.7 M731.7,37.1H268.3c-28.4,0-51.5,23.1-51.5,51.5
		v882.2l36.2-50.2l49.6-68.8l49.6,68.8l16.2,22.5l16.2-22.5l49.6-68.8l49.6,68.8l16.2,22.5l16.2-22.5l49.6-68.8l49.6,68.8l16.2,22.5
		l16.2-22.5l49.6-68.8l49.6,68.8l36.2,50.2V88.6C783.2,60.2,760.1,37.1,731.7,37.1z"/>
	<polyline class="st2" points="427.9,344.6 483,400.1 572.1,309.6 	"/>
	<line class="st3" x1="409.2" y1="608.5" x2="590.8" y2="608.5"/>
	<line class="st3" x1="353.1" y1="654.1" x2="646.9" y2="654.1"/>
</g>
</svg>
