<?xml version="1.0" encoding="utf-8"?>
<!-- Generator: Adobe Illustrator 22.1.0, SVG Export Plug-In . SVG Version: 6.00 Build 0)  -->
<svg version="1.1" id="Layer_1" xmlns="http://www.w3.org/2000/svg" xmlns:xlink="http://www.w3.org/1999/xlink" x="0px" y="0px"
	 viewBox="119.6 0 760.8 1000" style="enable-background:new 119.6 0 760.8 1000;" xml:space="preserve">
<style type="text/css">
	.st0{fill:#FFFFFF;}
	.st1{fill:#7FD7C3;}
	.st2{fill:#6B625A;}
	.st3{fill:#534747;}
	.st4{fill:none;stroke:#58595B;stroke-width:15;stroke-linecap:round;stroke-miterlimit:10;}
	.st5{fill:none;stroke:#58595B;stroke-width:3;stroke-linecap:round;stroke-miterlimit:10;}
	.st6{fill:#272B26;}
	.st7{fill:#D7384A;}
</style>
<g>
	<path class="st0" d="M797.3,935.3H202.7c-13.8,0-24.9-11.1-24.9-24.9v-776c0-13.8,11.1-24.9,24.9-24.9h594.5
		c13.8,0,24.9,11.1,24.9,24.9v776C822.2,924.1,811.1,935.3,797.3,935.3z"/>
	<path class="st1" d="M797.3,956.6H202.7c-25.5,0-46.2-20.7-46.2-46.2v-776c0-25.5,20.7-46.2,46.2-46.2h594.5
		c25.5,0,46.2,20.7,46.2,46.2v776C843.5,935.8,822.8,956.6,797.3,956.6z M202.7,130.6c-2,0-3.7,1.7-3.7,3.7v776c0,2,1.7,3.7,3.7,3.7
		h594.5c2,0,3.7-1.7,3.7-3.7V134.4c0-2-1.7-3.7-3.7-3.7H202.7V130.6z"/>
</g>
<path class="st2" d="M639.6,173.9H360.4c-47.4,0-85.8-38.4-85.8-85.8l0,0h450.9l0,0C725.4,135.6,687.1,173.9,639.6,173.9z"/>
<path class="st3" d="M500.2,35.1h-0.4c-29.3,0-53,23.8-53,53l0,0h31.4l0,0c0-12,9.8-21.8,21.8-21.8l0,0c12,0,21.8,9.8,21.8,21.8l0,0
	h31.4l0,0C553.2,58.9,529.5,35.1,500.2,35.1z"/>
<g>
	<line class="st4" x1="248.3" y1="202.7" x2="762.1" y2="202.7"/>
	<line class="st4" x1="248.3" y1="237.1" x2="762.1" y2="237.1"/>
	<line class="st4" x1="248.3" y1="271.5" x2="762.1" y2="271.5"/>
	<line class="st4" x1="248.3" y1="305.8" x2="762.1" y2="305.8"/>
	<line class="st4" x1="248.3" y1="340.2" x2="762.1" y2="340.2"/>
	<line class="st4" x1="248.3" y1="374.6" x2="431.9" y2="374.6"/>
</g>
<g>
	<line class="st4" x1="248.3" y1="717.7" x2="762.1" y2="717.7"/>
	<line class="st4" x1="248.3" y1="752.1" x2="762.1" y2="752.1"/>
	<line class="st4" x1="248.3" y1="786.4" x2="762.1" y2="786.4"/>
	<line class="st4" x1="248.3" y1="820.8" x2="762.1" y2="820.8"/>
	<line class="st4" x1="578.5" y1="855.2" x2="762.1" y2="855.2"/>
</g>
<line class="st5" x1="253.9" y1="510.5" x2="759.5" y2="510.5"/>
<line class="st5" x1="253.9" y1="558.3" x2="759.5" y2="558.3"/>
<line class="st5" x1="253.9" y1="606.2" x2="759.5" y2="606.2"/>
<g>
	<path class="st6" d="M752.1,475.5v165.6H258.3V475.5H752.1 M758.5,465.5H251.9c-2,0-3.6,1.6-3.6,3.6v178.4c0,2,1.6,3.6,3.6,3.6
		h506.6c2,0,3.6-1.6,3.6-3.6V469.1C762.1,467.1,760.5,465.5,758.5,465.5L758.5,465.5z"/>
</g>
<path class="st7" d="M253.9,643.5l57.7-77.1c3.6-4.8,9.8-6.8,15.4-5l59.2,18.8c5.1,1.6,10.7,0.2,14.4-3.7l48.4-50.7
	c3.7-3.9,9.4-5.3,14.5-3.6l64.7,21.5c4.3,1.4,9.1,0.7,12.8-2.1c31.5-23.5,181.9-134.3,218.4-140.1c-44.3,40.7-178.8,157-209.2,183.2
	c-3.8,3.3-9.1,4.3-13.8,2.6l-64.9-22.9c-5.1-1.8-10.7-0.5-14.5,3.3l-46.8,46.4c-4.2,4.1-10.4,5.2-15.7,2.8l-63.1-29.3
	c-5-2.3-10.8-1.5-15,2.1L253.9,643.5z"/>
</svg>
