<?xml version="1.0" encoding="utf-8"?>
<!-- Generator: Adobe Illustrator 22.1.0, SVG Export Plug-In . SVG Version: 6.00 Build 0)  -->
<svg version="1.1" id="Camada_1" xmlns="http://www.w3.org/2000/svg" xmlns:xlink="http://www.w3.org/1999/xlink" x="0px" y="0px"
	 viewBox="0 0 200 200" style="enable-background:new 0 0 200 200;" xml:space="preserve">
<style type="text/css">
	.st0{fill:#5A6060;}
	.st1{fill:#B8E4D8;}
	.st2{fill:#3A6E47;}
	.st3{fill:#FFFFFF;}
	.st4{fill:#C12A21;}
	.st5{fill:#727B7B;}
	.st6{fill:#919B9B;}
	.st7{fill:#515859;}
	.st8{fill:#636569;}
	.st9{fill:#B0B0B0;}
	.st10{fill:none;stroke:#B0B0B0;stroke-width:10;stroke-miterlimit:10;}
	.st11{fill:none;stroke:#B0B0B0;stroke-width:4;stroke-miterlimit:10;}
</style>
<polygon class="st0" points="137.9,177.9 149.2,177.9 149.2,159.6 130.9,159.6 "/>
<polygon class="st0" points="35.2,177.9 23.9,177.9 23.9,159.6 42.2,159.6 "/>
<path class="st0" d="M149.2,159.6H23.9V42.7c0-4.6,3.8-8.4,8.4-8.4h108.5c4.6,0,8.4,3.8,8.4,8.4V159.6z"/>
<g>
	<g>
		<path class="st1" d="M67.8,120.3c0,0-7.2,9.7-15.6,9.7h-0.1h-0.6c-7.7,0-12.5,1.8-21.7,12.1l12.5,12.5c0,0,5.8-11.9,15.6-11.9
			c7.2,0,12.5-1.5,21.7-10.8L67.8,120.3z"/>
		<path class="st2" d="M42.7,148.6c0.7,0,1.5,0.1,2.1,0.4c2.8-3.5,7.2-7.4,12.9-7.4c5.8,0,10-1,16.4-6.5c-0.6-0.8-0.9-1.9-0.9-3
			c0-1,0.3-2.1,0.8-2.9l-3.7-3.7c-0.9,0.6-2,0.9-3.2,0.7c-0.9,0-2-0.3-2.8-0.8c-3,2.8-7.3,5.7-12.1,5.7h-0.1h-0.6
			c-6,0-10,1.1-16.5,7.5c0.7,0.9,1,2.1,1,3.2c0,1.1-0.3,2.2-0.9,3.1l4.5,4.5C40.5,148.9,41.6,148.6,42.7,148.6z"/>
	</g>
	<g>
		<path class="st1" d="M67.8,108.7c0,0-7.2,9.7-15.6,9.7h-0.1h-0.6c-7.7,0-12.5,1.8-21.7,12.1l12.5,12.5c0,0,5.8-11.9,15.6-11.9
			c7.2,0,12.5-1.5,21.7-10.8L67.8,108.7z"/>
		<path class="st2" d="M42.7,137c0.7,0,1.5,0.1,2.1,0.4c2.8-3.5,7.2-7.4,12.9-7.4c5.8,0,10-1,16.4-6.5c-0.6-0.8-0.9-1.9-0.9-3
			c0-1,0.3-2.1,0.8-2.9l-3.7-3.7c-0.9,0.6-2,0.9-3.2,0.7c-0.9,0-2-0.3-2.8-0.8c-3,2.8-7.3,5.7-12.1,5.7h-0.1h-0.6
			c-6,0-10,1.1-16.5,7.5c0.7,0.9,1,2.1,1,3.2c0,1.1-0.3,2.2-0.9,3.1l4.5,4.5C40.5,137.3,41.6,137,42.7,137z"/>
	</g>
	<g>
		<path class="st1" d="M67.8,97.1c0,0-7.2,9.7-15.6,9.7h-0.1h-0.6c-7.7,0-12.5,1.8-21.7,12.1l12.5,12.5c0,0,5.8-11.9,15.6-11.9
			c7.2,0,12.5-1.5,21.7-10.8L67.8,97.1z"/>
		<path class="st2" d="M42.7,125.3c0.7,0,1.5,0.1,2.1,0.4c2.8-3.5,7.2-7.4,12.9-7.4c5.8,0,10-1,16.4-6.5c-0.6-0.8-0.9-1.9-0.9-3
			c0-1,0.3-2.1,0.8-2.9l-3.7-3.7c-0.9,0.6-2,0.9-3.2,0.7c-0.9,0-2-0.3-2.8-0.8c-3,2.8-7.3,5.7-12.1,5.7h-0.1h-0.6
			c-6,0-10,1.1-16.5,7.5c0.7,0.9,1,2.1,1,3.2c0,1.1-0.3,2.2-0.9,3.1l4.5,4.5C40.5,125.6,41.6,125.3,42.7,125.3z"/>
	</g>
	<g>
		<path class="st1" d="M67.8,85.4c0,0-7.2,9.7-15.6,9.7h-0.1h-0.6c-7.7,0-12.5,1.8-21.7,12.1l12.5,12.5c0,0,5.8-11.9,15.6-11.9
			c7.2,0,12.5-1.5,21.7-10.8L67.8,85.4z"/>
		<path class="st2" d="M42.7,113.7c0.7,0,1.5,0.1,2.1,0.4c2.8-3.5,7.2-7.4,12.9-7.4c5.8,0,10-1,16.4-6.5c-0.6-0.8-0.9-1.9-0.9-3
			c0-1,0.3-2.1,0.8-2.9l-3.7-3.7c-0.9,0.6-2,0.9-3.2,0.7c-0.9,0-2-0.3-2.8-0.8c-3,2.8-7.3,5.7-12.1,5.7h-0.1h-0.6
			c-6,0-10,1.1-16.5,7.5c0.7,0.9,1,2.1,1,3.2c0,1.1-0.3,2.2-0.9,3.1l4.5,4.5C40.5,114,41.6,113.7,42.7,113.7z"/>
	</g>
	<g>
		<path class="st1" d="M67.8,73.8c0,0-7.2,9.7-15.6,9.7h-0.1h-0.6c-7.7,0-12.5,1.8-21.7,12.1l12.5,12.5c0,0,5.8-11.9,15.6-11.9
			c7.2,0,12.5-1.5,21.7-10.8L67.8,73.8z"/>
		<path class="st2" d="M42.7,102.1c0.7,0,1.5,0.1,2.1,0.4c2.8-3.5,7.2-7.4,12.9-7.4c5.8,0,10-1,16.4-6.5c-0.6-0.8-0.9-1.9-0.9-3
			c0-1,0.3-2.1,0.8-2.9L70.4,79c-0.9,0.6-2,0.9-3.2,0.7c-0.9,0-2-0.3-2.8-0.8c-3,2.8-7.3,5.7-12.1,5.7h-0.1h-0.6
			c-6,0-10,1.1-16.5,7.5c0.7,0.9,1,2.1,1,3.2c0,1.1-0.3,2.2-0.9,3.1l4.5,4.5C40.5,102.4,41.6,102.1,42.7,102.1z"/>
	</g>
	<g>
		<path class="st1" d="M67.8,62.2c0,0-7.2,9.7-15.6,9.7h-0.1h-0.6c-7.7,0-12.5,1.8-21.7,12.1l12.5,12.5c0,0,5.8-11.9,15.6-11.9
			c7.2,0,12.5-1.5,21.7-10.8L67.8,62.2z"/>
		<path class="st2" d="M42.7,90.4c0.7,0,1.5,0.1,2.1,0.4c2.8-3.5,7.2-7.4,12.9-7.4c5.8,0,10-1,16.4-6.5c-0.6-0.8-0.9-1.9-0.9-3
			c0-1,0.3-2.1,0.8-2.9l-3.7-3.7c-0.9,0.6-2,0.9-3.2,0.7c-0.9,0-2-0.3-2.8-0.8c-3,2.8-7.3,5.7-12.1,5.7h-0.1h-0.6
			c-6,0-10,1.1-16.5,7.5c0.7,0.9,1,2.1,1,3.2c0,1.1-0.3,2.2-0.9,3.1l4.5,4.5C40.5,90.8,41.6,90.4,42.7,90.4z"/>
	</g>
	<g>
		<path class="st1" d="M67.8,50.5c0,0-7.2,9.7-15.6,9.7h-0.1h-0.6c-7.7,0-12.5,1.8-21.7,12.1l12.5,12.5c0,0,5.8-11.9,15.6-11.9
			c7.2,0,12.5-1.5,21.7-10.8L67.8,50.5z"/>
		<path class="st2" d="M42.7,78.8c0.7,0,1.5,0.1,2.1,0.4c2.8-3.5,7.2-7.4,12.9-7.4c5.8,0,10-1,16.4-6.5c-0.6-0.8-0.9-1.9-0.9-3
			c0-1,0.3-2.1,0.8-2.9l-3.7-3.7c-0.9,0.6-2,0.9-3.2,0.7c-0.9,0-2-0.3-2.8-0.8c-3,2.8-7.3,5.7-12.1,5.7h-0.1h-0.6
			c-6,0-10,1.1-16.5,7.5c0.7,0.9,1,2.1,1,3.2c0,1.1-0.3,2.2-0.9,3.1l4.5,4.5C40.5,79.1,41.6,78.8,42.7,78.8z"/>
	</g>
	<g>
		<path class="st1" d="M67.8,38.9c0,0-7.2,9.7-15.6,9.7h-0.1h-0.6c-7.7,0-12.5,1.8-21.7,12.1l12.5,12.5c0,0,5.8-11.9,15.6-11.9
			c7.2,0,12.5-1.5,21.7-10.8L67.8,38.9z"/>
		<path class="st2" d="M42.7,67.2c0.7,0,1.5,0.1,2.1,0.4c2.8-3.5,7.2-7.4,12.9-7.4c5.8,0,10-1,16.4-6.5c-0.6-0.8-0.9-1.9-0.9-3
			c0-1,0.3-2.1,0.8-2.9l-3.7-3.7c-0.9,0.6-2,0.9-3.2,0.7c-0.9,0-2-0.3-2.8-0.8c-3,2.8-7.3,5.7-12.1,5.7h-0.1h-0.6
			c-6,0-10,1.1-16.5,7.5c0.7,0.9,1,2.1,1,3.2c0,1.1-0.3,2.2-0.9,3.1l4.5,4.5C40.5,67.5,41.6,67.2,42.7,67.2z"/>
	</g>
</g>
<g>
	<path class="st2" d="M78,51.4c-0.4,0-0.9-0.1-1.2-0.4L58.8,40.3c-0.8-0.4-1.2-1.2-1.2-2.1s0.5-1.7,1.2-2.1l3.8-2.1
		C51.8,22.6,35.9,15.6,17.9,14.3c-1.3-0.1-2.4-1.2-2.3-2.6l0.4-6c0.1-1.3,1.1-2.4,2.5-2.4h0.2c22,1.6,41.2,10.5,54,25.1l4.7-2.6
		c0.4-0.2,0.8-0.4,1.1-0.4c0.6,0,1.3,0.3,1.8,0.7c0.4,0.4,0.7,1.1,0.7,1.8l-0.4,20.9C80.5,50.3,79.4,51.4,78,51.4z"/>
	<path class="st3" d="M18.4,4.7C18.4,4.7,18.5,4.7,18.4,4.7c21.7,1.5,40.8,10.4,53.3,24.7c0.3,0.3,0.5,0.4,0.9,0.4
		c0.2,0,0.4-0.1,0.5-0.2l4.8-2.7c0.2-0.1,0.4-0.2,0.5-0.2c0.6,0,1.1,0.5,1.1,1.1l-0.4,20.9c0,0.6-0.5,1.1-1.1,1.1
		c-0.2,0-0.4-0.1-0.6-0.2L59.5,39.1c-0.8-0.4-0.7-1.6,0-1.9l4-2.2c0.6-0.4,0.8-1.2,0.3-1.8C52.8,21.5,36.6,14.3,18,13
		c-0.6-0.1-1.1-0.5-1.1-1.2l0.4-6C17.4,5.2,17.8,4.7,18.4,4.7 M18.4,2c-2,0-3.7,1.6-3.8,3.5l-0.4,6c-0.1,2,1.5,3.9,3.5,4
		c17.1,1.2,32.2,7.6,42.7,17.9l-2.3,1.2c-1.1,0.6-1.9,1.9-1.9,3.3c0,1.3,0.7,2.7,1.9,3.4l17.9,10.8c0.6,0.4,1.2,0.5,1.9,0.5
		c2,0,3.7-1.7,3.8-3.7L82.2,28c0-1.1-0.4-2-1.1-2.7s-1.7-1.1-2.7-1.1c-0.6,0-1.2,0.2-1.9,0.4l-3.7,2C59.9,12.3,40.7,3.6,18.7,2
		C18.7,2,18.4,2,18.4,2z"/>
</g>
<g>
	<path class="st1" d="M90.1,38.9c0,0-7.2,9.7-15.6,9.7h-0.1h-0.6c-7.7,0-12.5,1.8-21.7,12.1l12.5,12.5c0,0,5.8-11.9,15.6-11.9
		c7.2,0,12.5-1.5,21.7-10.8L90.1,38.9z"/>
	<path class="st2" d="M65,67.1c0.7,0,1.5,0.1,2.1,0.4c2.8-3.5,7.2-7.4,12.9-7.4c5.8,0,10-1,16.4-6.5c-0.6-0.8-0.9-1.9-0.9-3
		c0-1,0.3-2.1,0.8-2.9l-3.7-3.7c-0.9,0.6-2,0.9-3.2,0.7c-0.9,0-2-0.3-2.8-0.8c-3,2.8-7.3,5.7-12.1,5.7h-0.1h-0.6
		c-6,0-10,1.1-16.5,7.5c0.7,0.9,1,2.1,1,3.2c0,1.1-0.3,2.2-0.9,3.1l4.5,4.5C62.8,67.4,63.9,67.1,65,67.1z"/>
</g>
<g>
	<path class="st1" d="M109.6,38.9c0,0-7.2,9.7-15.6,9.7h-0.1h-0.6c-7.7,0-12.5,1.8-21.7,12.1l12.5,12.5c0,0,5.8-11.9,15.6-11.9
		c7.2,0,12.5-1.5,21.7-10.8L109.6,38.9z"/>
	<path class="st2" d="M84.6,67.1c0.7,0,1.5,0.1,2.1,0.4c2.8-3.5,7.2-7.4,12.9-7.4c5.8,0,10-1,16.4-6.5c-0.6-0.8-0.9-1.9-0.9-3
		c0-1,0.3-2.1,0.8-2.9l-3.7-3.7c-0.9,0.6-2,0.9-3.2,0.7c-0.9,0-2-0.3-2.8-0.8c-3,2.8-7.3,5.7-12.1,5.7h-0.1h-0.6
		c-6,0-10,1.1-16.5,7.5c0.7,0.9,1,2.1,1,3.2c0,1.1-0.3,2.2-0.9,3.1l4.5,4.5C82.4,67.4,83.4,67.1,84.6,67.1z"/>
</g>
<g>
	<path class="st1" d="M130.3,38.9c0,0-7.2,9.7-15.6,9.7h-0.1H114c-7.7,0-12.5,1.8-21.7,12.1l12.5,12.5c0,0,5.8-11.9,15.6-11.9
		c7.2,0,12.5-1.5,21.7-10.8L130.3,38.9z"/>
	<path class="st2" d="M105.3,67.1c0.7,0,1.5,0.1,2.1,0.4c2.8-3.5,7.2-7.4,12.9-7.4c5.8,0,10-1,16.4-6.5c-0.6-0.8-0.9-1.9-0.9-3
		c0-1,0.3-2.1,0.8-2.9l-3.7-3.7c-0.9,0.6-2,0.9-3.2,0.7c-0.9,0-2-0.3-2.8-0.8c-3,2.8-7.3,5.7-12.1,5.7h-0.1H114
		c-6,0-10,1.1-16.5,7.5c0.7,0.9,1,2.1,1,3.2c0,1.1-0.3,2.2-0.9,3.1l4.5,4.5C103.1,67.4,104.1,67.1,105.3,67.1z"/>
</g>
<g>
	<path class="st4" d="M120.7,64.6l0.7-0.9c12-16,29.5-26.2,47-27.6l0.8-6.2l17.6,13l-20.1,8.7l0.6-5.6c-14.2,1.7-28,10.2-38,23.5
		l-0.7,0.9C128.5,70.5,120.7,64.6,120.7,64.6z"/>
	<path class="st3" d="M169.9,32l14.4,10.7l-16.5,7.1l0.6-5c-14.8,1.3-29.7,10.1-40.2,24.1l-6-4.5c12.2-16.1,29.6-26.2,47.1-27.1
		L169.9,32 M168.2,27.8l-0.5,3.9l-0.4,3.4c-17.4,1.7-34.8,12-46.8,28l-1.4,1.8l1.8,1.4l6,4.5l1.8,1.4l1.4-1.8
		c9.5-12.6,22.5-20.9,35.9-22.9l-0.2,2.2l-0.5,3.9l3.6-1.6l16.5-7.1l3.6-1.6l-3.2-2.3l-14.6-10.7L168.2,27.8L168.2,27.8z"/>
</g>
<g>
	<path class="st5" d="M168.2,178.3H42.9V61.3c0-4.6,3.8-8.4,8.4-8.4h108.5c4.6,0,8.4,3.8,8.4,8.4V178.3z"/>
	<polygon class="st6" points="156.9,196.6 168.2,196.6 168.2,178.3 149.9,178.3 	"/>
	<polygon class="st6" points="54.2,196.6 42.9,196.6 42.9,178.3 61.2,178.3 	"/>
	<rect x="61.2" y="71.2" class="st7" width="88.7" height="88.7"/>
	<circle class="st8" cx="105.5" cy="115.6" r="23.7"/>
	<circle class="st9" cx="105.5" cy="115.6" r="9"/>
	<line class="st10" x1="105.2" y1="115.6" x2="134.8" y2="115.6"/>
	<path class="st11" d="M122.1,115.6c0,9.4-7.5,16.9-16.9,16.9"/>
</g>
</svg>
