<?xml version="1.0" encoding="utf-8"?>
<!-- Generator: Adobe Illustrator 19.1.0, SVG Export Plug-In . SVG Version: 6.00 Build 0)  -->
<svg version="1.1" id="Layer_1" xmlns="http://www.w3.org/2000/svg" xmlns:xlink="http://www.w3.org/1999/xlink" x="0px" y="0px"
	 viewBox="92 -345 1000 1000" style="enable-background:new 92 -345 1000 1000;" xml:space="preserve">
<style type="text/css">
	.st0{fill:#95D600;}
	.st1{fill:#FF0000;}
	.st2{fill:#A75A29;stroke:#FFFFFF;stroke-width:30;stroke-miterlimit:10;}
	.st3{fill:#005128;}
	.st4{fill:#009944;}
	.st5{fill:#0098CE;stroke:#6D5D35;stroke-width:10;stroke-miterlimit:10;}
	.st6{fill:#3CD52E;stroke:#6D5D35;stroke-width:10;stroke-miterlimit:10;}
	.st7{fill:#FFDD00;stroke:#6D5D35;stroke-width:10;stroke-miterlimit:10;}
	.st8{fill:none;stroke:#794210;stroke-width:20;stroke-linecap:round;stroke-miterlimit:10;}
</style>
<g>
	<path class="st0" d="M272.7-154.6c0,0,0.9-1.1,2.5-3c1.6-1.9,4-4.8,7.3-8.3c1.6-1.7,3.4-3.8,5.6-5.7c1.1-1,2.2-2,3.2-3.1
		s2.3-2.3,3.6-3.3s2.6-2.3,4-3.4c0.6-0.5,1.4-1.2,2-1.8c0.8-0.5,1.5-1.2,2.2-1.7c1.5-1.2,3-2.4,4.6-3.6c1.5-1.3,3.2-2.4,4.9-3.6
		c6.8-4.9,14.6-9.6,23.2-14.2c2.2-1.1,4.4-2.2,6.7-3.3c2.3-1.1,4.6-2,7-3.1c2.4-1.1,4.7-1.9,7.2-2.9c2.5-1,4.9-1.9,7.5-2.7
		c2.6-0.9,5.2-1.7,7.7-2.5c2.7-0.8,5.3-1.5,8-2.3c5.4-1.3,11-2.6,16.7-3.4c11.3-1.9,23.1-2.9,35-3c11.8,0,23.8,1.1,35.5,3
		s23.2,4.7,34.1,8.5c2.8,0.9,5.4,1.9,8.1,2.9c1.3,0.5,2.7,1,4,1.5l3.9,1.6c2.6,1.2,5.1,2.2,7.5,3.3s4.8,2.5,7.2,3.7
		c9.5,4.9,18.2,10.2,25.8,15.7c1.9,1.4,3.9,2.7,5.6,4.1c1.8,1.4,3.6,2.8,5.2,4.1c0.9,0.6,1.7,1.3,2.5,1.9l0.6,0.5l0.1,0.1l0.1,0.1
		l0.2,0.2l0.2,0.2c0.3,0.3,0.6,0.5,1.1,0.9c0.6,0.4,1.5,1.3,2.4,1.9l2.3,1.9c5.8,5.2,10.5,9.9,14.4,14c3.9,4.1,6.8,7.4,8.7,9.8
		c1.9,2.3,2.9,3.6,2.9,3.6l1,1.2c13,16.4,10.3,40.2-6,53.4c-16.4,13-40.2,10.3-53.4-6c-1.6-2-3.1-4.4-4.2-6.7c0,0-0.5-1-1.4-2.8
		c-1-1.8-2.4-4.5-4.3-7.9s-4.5-7.3-7.6-11.8c-0.4-0.5-0.8-1.1-1.2-1.6c-0.4-0.5-0.6-1-1.3-1.7c-0.3-0.3-0.5-0.6-0.9-1.1l-0.2-0.2
		l0.1,0.1v-0.1l-0.1-0.1l-0.3-0.4c-0.4-0.5-1-1.2-1.4-1.7c-1-1.2-1.9-2.5-3-3.8c-1.1-1.3-2.2-2.5-3.3-3.8
		c-4.5-5.2-9.9-10.3-15.9-15.5c-1.5-1.3-3.1-2.6-4.6-3.9c-1.6-1.3-3.3-2.5-4.9-3.8c-0.9-0.6-1.7-1.3-2.6-1.8s-1.8-1.2-2.7-1.7
		c-1.8-1.2-3.6-2.5-5.5-3.6c-7.5-4.7-15.8-8.7-24.5-12.4c-8.7-3.6-18.1-6.6-27.7-8.6s-19.5-3.4-29.3-4c-4.9-0.3-9.8-0.2-14.7-0.2
		c-2.5,0.1-4.8,0.2-7.2,0.3s-4.7,0.4-7.2,0.6c-2.4,0.2-4.7,0.5-7.1,1c-2.4,0.3-4.6,0.6-6.9,1.2c-2.3,0.4-4.5,0.9-6.8,1.4
		c-2.3,0.5-4.4,1.1-6.6,1.6c-8.6,2.4-16.7,5.1-23.9,8.2c-1.8,0.8-3.7,1.5-5.3,2.3c-1.7,0.9-3.3,1.6-5.1,2.4
		c-0.9,0.4-1.6,0.8-2.4,1.2l-2.3,1.3c-1.5,0.9-3,1.6-4.4,2.4s-2.8,1.6-4.1,2.4s-2.6,1.5-3.8,2.3c-2.5,1.4-4.5,2.9-6.5,4.3
		c-3.9,2.6-6.9,4.9-8.8,6.5C273.8-155.5,272.7-154.6,272.7-154.6L272.7-154.6z"/>
	<polygon class="st0" points="499,-117.3 604.6,-33 624.8,-166.7 	"/>
	<path class="st1" d="M732.6,67.9c0,0-0.6-1.3-1.7-3.5c-1.1-2.3-2.7-5.6-4.5-10.1c-0.9-2.1-1.9-4.7-2.9-7.5
		c-0.5-1.4-0.9-2.8-1.5-4.2c-0.5-1.5-1.1-3-1.6-4.6c-0.5-1.6-1-3.2-1.5-5c-0.2-0.8-0.5-1.8-0.8-2.6c-0.2-1-0.4-1.8-0.7-2.7
		c-0.4-1.8-0.9-3.7-1.3-5.7c-0.5-1.9-0.8-3.9-1.1-6c-1.7-8.2-2.6-17.3-3.1-27c-0.1-2.4-0.1-5-0.2-7.5c-0.1-2.5,0.1-5.1,0.1-7.6
		s0.2-5.1,0.4-7.8c0.2-2.7,0.3-5.3,0.8-8c0.3-2.7,0.6-5.5,0.9-8.1c0.4-2.7,0.9-5.4,1.3-8.2c1.1-5.4,2.3-11,3.9-16.6
		c2.9-11.1,7-22.3,11.9-33.1c5-10.7,10.9-21.1,17.6-31c6.7-9.9,14.1-19.1,22-27.5c2-2.2,4-4.1,6-6.2c1-1,2-2.1,3-3l3.1-2.9
		c2.1-1.8,4.1-3.7,6.1-5.5c2.1-1.7,4.2-3.3,6.3-5.1c8.5-6.5,16.9-12.3,25.1-17c2-1.2,4.1-2.4,6-3.4c2-1.1,4-2.1,5.9-3
		c0.9-0.5,1.9-1,2.8-1.5l0.8-0.4l0.1-0.1l0.1-0.1l0.3-0.1l0.3-0.1c0.4-0.2,0.8-0.4,1.3-0.6c0.7-0.4,1.8-0.8,2.8-1.3l2.7-1.3
		c7.1-3.1,13.5-5.4,18.8-7.3c5.3-1.8,9.6-3.1,12.5-3.8c2.8-0.8,4.4-1.2,4.4-1.2l1.4-0.4c20.2-5,40.9,7.5,46,27.8
		c5,20.2-7.5,40.9-27.8,46c-2.5,0.6-5.3,1-7.9,1c0,0-1.1,0.1-3.1,0.1c-2,0.1-5.1,0.2-9,0.6c-3.8,0.4-8.5,1.1-14,2
		c-0.6,0.2-1.3,0.3-2,0.4c-0.6,0.2-1.2,0.2-2.1,0.4c-0.4,0.2-0.8,0.2-1.4,0.3l-0.3,0.1l0.1-0.1l-0.1-0.1l-0.1,0.1l-0.6,0.1
		c-0.6,0.2-1.4,0.4-2.1,0.6c-1.4,0.4-3,0.7-4.7,1.2c-1.6,0.5-3.2,0.9-4.8,1.5c-6.6,1.9-13.5,4.7-20.7,8c-1.8,0.8-3.7,1.7-5.4,2.6
		c-1.8,0.9-3.6,1.9-5.5,2.9c-0.9,0.5-1.9,1-2.7,1.6c-0.8,0.6-1.8,1.2-2.7,1.7c-1.8,1.2-3.7,2.2-5.6,3.5
		c-7.5,4.9-14.6,10.7-21.5,17.2c-6.9,6.4-13.5,13.7-19.4,21.5S751.6-73.4,747-64.7c-2.3,4.3-4.3,8.8-6.3,13.3
		c-1,2.3-1.8,4.5-2.7,6.7c-0.9,2.2-1.6,4.4-2.4,6.8c-0.8,2.3-1.5,4.5-2.1,6.8c-0.8,2.3-1.3,4.4-1.8,6.7c-0.5,2.2-1.1,4.5-1.6,6.7
		c-0.5,2.3-0.9,4.5-1.3,6.6c-1.4,8.9-2.4,17.3-2.6,25.2c-0.1,1.9-0.2,4-0.2,5.7c0.1,1.9,0,3.7,0,5.6c0,0.9-0.1,1.8,0,2.6l0.3,2.6
		c0.2,1.7,0.2,3.4,0.3,5c0.1,1.6,0.3,3.2,0.5,4.7c0.1,1.5,0.3,3,0.5,4.4c0.2,2.9,0.8,5.3,1.2,7.6c0.8,4.6,1.6,8.4,2.2,10.8
		C732.2,66.6,732.6,67.9,732.6,67.9L732.6,67.9z"/>
	<polygon class="st1" points="861.1,-122.1 981.7,-182.9 868.8,-257 	"/>
	<path class="st2" d="M914.3,98.7H229.1c-38.4,0-69.5-31.1-69.5-69.5c-0.1-31.3,25.3-56.7,56.6-56.7h591.4
		c59,0,106.7,47.8,106.7,106.7V98.7L914.3,98.7z"/>
	<path class="st3" d="M244.5,27.7c0,0,80.9,45,251.6-31.2S745.5-33,745.5-33l29.1,235.3c0,0-95.3-39.7-245.8,30
		S300.1,274,266.4,264.4C260.3,230.1,244.5,27.7,244.5,27.7L244.5,27.7z"/>
	<path class="st4" d="M496.2-13.1C409.4,22.6,321.5,54.2,230.5,12l24.3,258.6c90.9,42.1,178.8,10.9,265.9-25.2
		s174.7-67.3,265.9-25.2L762.1-38.3C670.9-80.3,583.2-48.9,496.2-13.1z M755.9,146c-23.1-4.6-41.1,13.2-45.3,34.6
		C573.9,167.4,463,282.1,326.3,269.1c-9.3-26.1-31.1-45.7-54.1-59.6l-11.6-123c22.6,3.3,41.8-12.2,45.3-34.6
		C442.6,64.9,553.5-49.7,690.2-36.5c9.4,26,31.2,45.6,54.1,59.6L755.9,146L755.9,146z"/>
	<path class="st4" d="M704.9,78.6c1.4,12.7-9.9,22.5-22,22.1c-12.7-0.5-25-10-26.4-23.3c-1.2-12.9,8.5-25,21.8-24.6
		C691.7,53.1,703.5,65.4,704.9,78.6z"/>
	<path class="st4" d="M332.8,127.3c1.3,13.5-9.8,27.9-24.2,26.8c-14.8-1-27.8-15.1-29.4-29.3c-1.9-14,11.4-24.4,24.4-23.9
		C317.8,102.2,331.4,112.8,332.8,127.3z"/>
	<g>
		<path class="st4" d="M481.5,97.2c0.5,3.1,1.9,5.5,4.3,7.1s4.9,2.6,8.2,3.2c0.2,0.1,0.4,0.1,0.9,0.2l-4.3-25.9
			c-2.2,1.2-4.2,2.5-5.7,4C481.9,89.1,480.7,92.8,481.5,97.2z"/>
		<path class="st4" d="M525.6,135.1c-0.3-2.6-1.7-4.8-3.8-6.1c-2.2-1.3-4.7-2.5-7.6-2.8c-0.3,0-0.8-0.1-1.3-0.3l4.1,24.2
			c2-1,3.7-2,5.3-3.7C525.3,143.6,526.5,139.8,525.6,135.1z"/>
		<path class="st4" d="M499.2,43l3.6,21.5c5.3-0.1,10.4,0.3,15.6,1.5c4.9,1.2,9.7,3,13.1,5.4l-4,14.1c-7.4-4.2-15-6.1-22.6-6.3
			l5.2,30c5.6,0.4,10.4,1.2,14.2,2c4.6,1.1,8.6,3.1,12.3,6.5c3.6,3.1,5.9,7.9,6.9,13.9c1.3,7.5-0.3,14.1-4.7,20.4
			c-4.3,6.1-10.7,10.4-19.4,13.2l3,18.4c41-19.4,99.5-58.5,95.1-106.8C612.2,19.3,536.2,28.8,499.2,43L499.2,43z"/>
		<path class="st4" d="M504.9,167.9c-6.1,0.5-12.2,0.3-17.8-0.9c-5.5-1.1-10.8-2.9-15-5.5l4-14.1c5.4,2.7,10.5,4.5,15.8,5.4
			c3.4,0.6,7.1,0.8,10.8,0.4l-4.8-29.2c-5.5-0.5-10.3-1.4-14-2.2c-4.6-1.1-8.9-3.2-12.7-6.5c-3.8-3.1-6.2-8.2-7.3-14.4
			c-1.3-7.5,0.4-14.3,4.9-20.7c4.7-6.2,11.2-10.9,19.6-13.6l-2.9-18.1c-41,18.9-101.3,58.5-96.8,107.7
			c5.5,58.1,83.9,47.5,120.2,32.9L504.9,167.9L504.9,167.9z"/>
	</g>
	<path class="st3" d="M294.2,43c0,0,80.9,45,251.6-31.2s249.4-29.5,249.4-29.5l29.1,235.3c0,0-95.3-39.7-245.8,30
		S349.7,289.3,316,279.7C309.9,245.5,294.2,43,294.2,43L294.2,43z"/>
	<path class="st4" d="M545.9,2.2C459,38,371.2,69.6,280.1,27.4L304.5,286c90.9,42.1,178.8,10.9,265.9-25.2s174.7-67.3,265.9-25.2
		L811.7-22.9C720.7-65,632.8-33.5,545.9,2.2L545.9,2.2z M805.5,161.3c-23.1-4.6-41.1,13.2-45.3,34.6
		c-136.7-13.2-247.6,101.5-384.3,88.4c-9.3-26.1-31.1-45.7-54.1-59.6L310.2,102c22.6,3.3,41.7-12.2,45.3-34.6
		C492.3,80.3,603.1-34.2,740-21c9.4,26,31.2,45.6,54.1,59.6L805.5,161.3L805.5,161.3z"/>
	<path class="st4" d="M754.5,94c1.4,12.7-9.9,22.5-22,22.1c-12.7-0.5-25-10-26.4-23.3c-1.2-12.9,8.5-25,21.8-24.6
		C741.4,68.5,753.1,80.6,754.5,94z"/>
	<path class="st4" d="M387.9,144.5c1.3,13.5-9.8,27.9-24.2,26.8c-14.8-1-27.8-15.1-29.4-29.3c-1.9-14,11.4-24.4,24.4-23.9
		C372.9,119.2,386.5,129.7,387.9,144.5z"/>
	<g>
		<path class="st4" d="M531.2,112.6c0.5,3.1,1.9,5.5,4.3,7.1c2.5,1.5,4.9,2.6,8.2,3.2c0.2,0.1,0.4,0.1,0.9,0.2l-4.3-25.9
			c-2.2,1.2-4.2,2.5-5.7,4C531.5,104.4,530.3,108.2,531.2,112.6z"/>
		<path class="st4" d="M575.2,150.5c-0.3-2.6-1.7-4.8-3.8-6.1c-2-1.3-4.7-2.5-7.6-2.8c-0.3,0-0.8-0.1-1.3-0.3l4.1,24.2
			c2-1,3.7-2,5.3-3.7C574.9,159,576.1,155.2,575.2,150.5z"/>
		<path class="st4" d="M548.9,58.3l3.6,21.5c5.3-0.1,10.4,0.3,15.6,1.5c4.9,1.2,9.7,3,13.1,5.4l-4,14.1c-7.4-4.2-15-6.1-22.6-6.3
			l5.2,30c5.6,0.4,10.4,1.2,14.2,2c4.6,1.1,8.6,3.1,12.3,6.5c3.6,3.1,5.9,7.9,6.9,13.9c1.3,7.5-0.3,14.1-4.7,20.4
			c-4.3,6.1-10.7,10.4-19.4,13.2l3,18.4c41-19.4,99.5-58.5,95.1-106.8C661.8,34.7,585.9,44.2,548.9,58.3z"/>
		<path class="st4" d="M554.6,183.3c-6.1,0.5-12.2,0.3-17.8-0.9c-5.5-1.1-10.8-2.9-15-5.5l4-14.1c5.4,2.7,10.5,4.5,15.8,5.4
			c3.4,0.6,7.1,0.8,10.8,0.4l-4.8-29.2c-5.5-0.5-10.3-1.4-14-2.2c-4.6-1.1-8.9-3.2-12.7-6.5c-3.8-3.1-6.2-8.2-7.3-14.4
			c-1.3-7.5,0.4-14.3,4.9-20.7c4.7-6.2,11.2-10.9,19.6-13.6l-2.9-18.1c-41,18.9-101.3,58.5-96.8,107.7
			c5.5,58.1,83.9,47.5,120.2,32.9L554.6,183.3L554.6,183.3z"/>
	</g>
	<path class="st3" d="M347.6,59.7c0,0,80.9,45,251.6-31.2S848.6-1,848.6-1l29.1,235.3c0,0-95.3-39.7-245.8,30S403.2,306,369.5,296.4
		C363.3,262.2,347.6,59.7,347.6,59.7L347.6,59.7z"/>
	<path class="st4" d="M599.4,18.9c-86.8,35.8-174.7,67.3-265.9,25.2L358,302.6c90.9,42.1,178.8,10.9,265.9-25.2
		c87.1-35.9,174.7-67.3,265.9-25.1L865.3-6.2C774.2-48.4,686.3-16.9,599.4,18.9L599.4,18.9z M859.2,178
		c-23.1-4.6-41.1,13.2-45.3,34.6c-136.7-13.2-247.6,101.5-384.3,88.4c-9.3-26.1-31.1-45.7-54.1-59.6l-11.6-122.9
		c22.6,3.3,41.8-12.2,45.3-34.6C545.9,97.1,656.8-17.5,793.5-4.4c9.4,26,31.2,45.6,54.1,59.6L859.2,178L859.2,178z"/>
	<path class="st4" d="M808.1,110.7c1.4,12.7-9.9,22.5-22,22.1c-12.7-0.5-25-10-26.4-23.3c-1.2-12.9,8.5-25,21.8-24.6
		C794.8,85.2,806.7,97.3,808.1,110.7z"/>
	<path class="st4" d="M447.3,162.9c1.3,13.5-9.8,27.9-24.2,26.8c-14.8-1-27.8-15.1-29.4-29.3c-1.9-14,11.4-24.4,24.4-23.9
		C432.4,137.7,445.9,148.3,447.3,162.9z"/>
	<g>
		<path class="st4" d="M584.8,129.3c0.5,3.1,1.9,5.5,4.3,7.1c2.5,1.5,4.9,2.6,8.2,3.2c0.2,0.1,0.4,0.1,0.9,0.2l-4.3-25.9
			c-2.2,1.2-4.2,2.5-5.7,4C585,121.1,583.9,124.9,584.8,129.3z"/>
		<path class="st4" d="M628.8,167.2c-0.3-2.6-1.7-4.8-3.8-6.1c-2.2-1.3-4.7-2.5-7.6-2.8c-0.3,0-0.8-0.1-1.3-0.3l4.1,24.2
			c2-1,3.7-2,5.3-3.7C628.5,175.7,629.7,171.9,628.8,167.2L628.8,167.2z"/>
		<path class="st4" d="M602.4,74.9l3.6,21.5c5.3-0.1,10.4,0.3,15.6,1.5c4.9,1.2,9.7,3,13.1,5.4l-4,14.1c-7.4-4.2-15-6.1-22.6-6.3
			l5.2,30c5.6,0.4,10.4,1.2,14.2,2c4.6,1.1,8.6,3.1,12.3,6.5c3.6,3.1,5.9,7.9,6.9,13.9c1.3,7.5-0.3,14.1-4.7,20.4
			c-4.3,6.1-10.7,10.4-19.4,13.2l3,18.4c41-19.4,99.5-58.5,95.1-106.8C715.4,51.4,639.3,60.8,602.4,74.9L602.4,74.9z"/>
		<path class="st4" d="M608.1,200c-6.1,0.5-12.2,0.3-17.8-0.9c-5.5-1.1-10.8-2.9-15-5.5l4-14.1c5.4,2.7,10.5,4.5,15.8,5.4
			c3.4,0.6,7.1,0.8,10.8,0.4l-4.8-29.2c-5.5-0.5-10.3-1.4-14-2.2c-4.6-1.1-8.9-3.2-12.7-6.5c-3.8-3.1-6.2-8.2-7.3-14.4
			c-1.3-7.5,0.4-14.3,4.9-20.7c4.7-6.2,11.2-10.9,19.6-13.6l-2.9-18.1c-41,18.9-101.3,58.5-96.8,107.7
			c5.5,58.1,83.9,47.5,120.2,32.9L608.1,200L608.1,200z"/>
	</g>
	<path class="st2" d="M159.4,29.2v482.2c0,67.5,54.7,122.1,122.1,122.1h704.6c21.3,0,38.4-17.2,38.4-38.4V223.3
		c0-68.9-55.7-124.6-124.6-124.6H234.2c-16,0-32-4.5-45.3-13.5C174,75.2,159.4,58,159.4,29.2L159.4,29.2z"/>
	<g>
		<path class="st5" d="M825,390.7H359v-50.9c0-13.3,10.9-24.1,24.1-24.1h417.6c13.3,0,24.1,10.9,24.1,24.1v50.9H825z"/>
		<path class="st6" d="M825,281.1H359v-50.9c0-13.3,10.9-24.1,24.1-24.1h417.6c13.3,0,24.1,10.9,24.1,24.1v50.9H825z"/>
		<path class="st7" d="M825,500.7H359v-50.9c0-13.3,10.9-24.1,24.1-24.1h417.6c13.3,0,24.1,10.9,24.1,24.1v50.9H825z"/>
	</g>
	<g>
		<line class="st8" x1="324.6" y1="280.5" x2="859.4" y2="280.5"/>
		<line class="st8" x1="324.6" y1="390.7" x2="859.4" y2="390.7"/>
		<line class="st8" x1="324.6" y1="500.7" x2="859.4" y2="500.7"/>
	</g>
</g>
</svg>
