<?xml version="1.0" encoding="UTF-8"?>
<svg enable-background="new 0 0 254.1 183.8" version="1.1" viewBox="0 0 254.1 183.8" xml:space="preserve" xmlns="http://www.w3.org/2000/svg" xmlns:xlink="http://www.w3.org/1999/xlink">
<style type="text/css">
	.st0{fill:#3BAD4C;}
	.st1{fill:#359444;}
	.st2{clip-path:url(#a);fill:#359444;}
	.st3{opacity:0.26;clip-path:url(#a);}
	.st4{opacity:0.3;fill:#FFFFFF;}
	.st5{fill:#FFFFFF;}
	.st6{clip-path:url(#SVGID_4_);fill:#359444;}
	.st7{opacity:0.26;clip-path:url(#SVGID_4_);}
</style>
	<path class="st0" d="m227.1 105.5s-38.2 30-100 30-100 30-100 30v-89.4s38.2-30 100-30 100-30 100-30v89.4z"/>
<path class="st1" d="m127.1 47.1c-61.8 0-100 30-100 30v89.4s38.2-30 100-30 100-30 100-30v-89.4s-38.2 30-100 30zm92 55.3c-9.9 6.6-43.3 26.1-92 26.1-43.2 0-75.3 14-92 23.4v-70.7c9.9-6.6 43.3-26.1 92-26.1 43.2 0 75.3-14 92-23.4v70.7z"/>
	<defs>
		<path id="b" d="m227.1 106.5s-38.2 30-100 30-100 30-100 30v-89.4s38.2-30 100-30 100-30 100-30v89.4z"/>
	</defs>
	<clipPath id="a">
		<use xlink:href="#b"/>
	</clipPath>
	<circle class="st2" cx="217.1" cy="27.1" r="27.1"/>
	<circle class="st2" cx="227.1" cy="106.7" r="27.1"/>
	<circle class="st2" cx="27.1" cy="77.1" r="27.1"/>
	<circle class="st2" cx="37.1" cy="156.7" r="27.1"/>
	<g class="st3">
		<circle cx="27.1" cy="77.1" r="18.1"/>
	</g>
	<g class="st3">
		<circle cx="227.1" cy="106.7" r="18.1"/>
	</g>
	<g class="st3">
		<circle cx="36.1" cy="158.1" r="18.1"/>
	</g>
	<g class="st3">
		<circle cx="218.4" cy="27.7" r="18.1"/>
	</g>
<path class="st4" d="m127.1 63.1c21.9 0 39.6 10.3 39.6 26.1s-17.7 31.3-39.6 31.3-39.6-10.3-39.6-26.1 17.7-31.3 39.6-31.3z"/>
<path class="st5" d="m143.4 89.2l-14.8-14.8c-0.8-0.8-2.2-0.8-3.1 0l-14.8 14.8c-0.8 0.8-0.8 2.2 0 3.1 0.8 0.8 2.2 0.8 3.1 0l2.7-2.7v7.6c0 5.9 4.8 10.6 10.6 10.6 5.9 0 10.6-4.8 10.6-10.6v-7.6l2.7 2.7c0.4 0.4 1 0.6 1.5 0.6s1.1-0.2 1.5-0.6c0.9-0.9 0.9-2.3 0-3.1zm-18.3-6.5c0-1.1 0.9-2 2-2s2 0.9 2 2v1.9c0 1.1-0.9 2-2 2s-2-0.9-2-2v-1.9zm5.1 17.6c0 0.5-0.4 0.9-0.9 0.9h-4.4c-0.5 0-0.9-0.4-0.9-0.9v-5.4c0-1.7 1.4-3.2 3.2-3.2s3.2 1.4 3.2 3.2v5.4z"/>
</svg>
