<?xml version="1.0" encoding="utf-8"?>
<!-- Generator: Adobe Illustrator 19.1.0, SVG Export Plug-In . SVG Version: 6.00 Build 0)  -->
<svg version="1.1" id="Layer_1" xmlns="http://www.w3.org/2000/svg" xmlns:xlink="http://www.w3.org/1999/xlink" x="0px" y="0px"
	 viewBox="0 0 1000 1000" style="enable-background:new 0 0 1000 1000;" xml:space="preserve">
<style type="text/css">
	.st0{fill:#FF6347;}
	.st1{fill:#FFFFFF;}
	.st2{fill:#FFAFA4;}
</style>
<rect x="191" y="693" class="st0" width="615.1" height="286"/>
<g>
	<g>
		<path class="st1" d="M191,963.8c-49.6,0-90-40.4-90-90V663.7c0-49.6,40.4-90,90-90s90,40.4,90,90v210.1
			C281,923.4,240.6,963.8,191,963.8z"/>
		<path class="st0" d="M191,588.7c41.4,0,75,33.6,75,75v210.1c0,41.4-33.6,75-75,75s-75-33.6-75-75V663.7
			C116,622.3,149.6,588.7,191,588.7 M191,558.7c-57.9,0-105,47.1-105,105v210.1c0,57.9,47.1,105,105,105s105-47.1,105-105V663.7
			C296,605.8,248.9,558.7,191,558.7L191,558.7z"/>
	</g>
</g>
<g>
	<g>
		<path class="st1" d="M396,963.8c-49.6,0-90-40.4-90-90V480c0-49.6,40.4-90,90-90s90,40.4,90,90v393.8
			C486,923.4,445.6,963.8,396,963.8z"/>
		<path class="st0" d="M396,405c41.4,0,75,33.6,75,75v393.8c0,41.4-33.6,75-75,75s-75-33.6-75-75V480C321,438.6,354.6,405,396,405
			 M396,375c-57.9,0-105,47.1-105,105v393.8c0,57.9,47.1,105,105,105s105-47.1,105-105V480C501,422.1,453.9,375,396,375L396,375z"/>
	</g>
</g>
<g>
	<g>
		<path class="st1" d="M601,963.8c-49.6,0-90-40.4-90-90V541.7c0-49.6,40.4-90,90-90s90,40.4,90,90v332.1
			C691,923.4,650.7,963.8,601,963.8z"/>
		<path class="st0" d="M601,466.7c41.4,0,75,33.6,75,75v332.1c0,41.4-33.6,75-75,75s-75-33.6-75-75V541.7
			C526,500.3,559.6,466.7,601,466.7 M601,436.7c-57.9,0-105,47.1-105,105v332.1c0,57.9,47.1,105,105,105s105-47.1,105-105V541.7
			C706,483.8,658.9,436.7,601,436.7L601,436.7z"/>
	</g>
</g>
<g>
	<g>
		<path class="st1" d="M806.1,963.8c-49.6,0-90-40.4-90-90V356.1c0-49.6,40.4-90,90-90s90,40.4,90,90v517.7
			C896.1,923.4,855.7,963.8,806.1,963.8z"/>
		<path class="st0" d="M806.1,281.1c41.4,0,75,33.6,75,75v517.7c0,41.4-33.6,75-75,75s-75-33.6-75-75V356.1
			C731.1,314.7,764.7,281.1,806.1,281.1 M806.1,251.1c-57.9,0-105,47.1-105,105v517.7c0,57.9,47.1,105,105,105s105-47.1,105-105
			V356.1C911.1,298.2,864,251.1,806.1,251.1L806.1,251.1z"/>
	</g>
</g>
<g>
	<g>
		<path class="st2" d="M191,439.6c-0.4-13.7,0.7-27.5,3.4-41c2.7-13.5,6.8-26.8,12.3-39.6c5.5-12.7,12.4-25,20.6-36.3
			c8.2-11.3,17.8-21.8,28.9-30.7c11.1-8.9,23.7-16.3,37.8-20.6c7-2.2,14.4-3.5,21.9-3.9c7.5-0.3,15.1,0.4,22.5,2.2
			c7.4,1.8,14.5,4.6,21.1,8.3c6.6,3.7,12.7,8.1,18.3,13.1c11.1,10,20,21.8,27.5,34.2l-18.5,0.3c2.9-5.9,6-11.6,9.6-17.2
			c3.6-5.6,7.5-11,11.9-16.1c4.4-5.1,9.1-10,14.3-14.4c5.2-4.4,10.9-8.4,16.9-11.9c6-3.5,12.4-6.4,19.1-8.6
			c6.6-2.3,13.5-3.9,20.5-4.8c14-1.8,28.2-0.9,41.8,2.4c13.6,3.3,26.6,8.9,38.4,16.4c11.8,7.5,22.4,16.8,31.4,27.7
			c9,10.8,16.3,23.2,21.4,36.6c5.1,13.4,7.9,27.8,8.3,42.2h-38.4c-0.4-16.8,1.1-33.3,3.9-49.5c2.8-16.2,7-32,12.3-47.4
			c5.3-15.4,11.6-30.4,18.9-44.9c7.3-14.5,15.5-28.6,24.7-42.1c9.2-13.5,19.2-26.5,30.3-38.8c11.1-12.3,23.1-23.8,36.2-34.4
			c13.1-10.6,27.2-20.1,42.4-28.2c15.2-8.1,31.6-14.7,48.8-19.2l0.3-0.1c16-4.2,32.4,5.4,36.6,21.4c4.2,16-5.4,32.4-21.4,36.6
			c-0.6,0.1-1.2,0.3-1.8,0.4c-12.5,2.5-24.9,6.6-36.9,12.1c-12,5.5-23.7,12.4-34.9,20.3c-11.1,8-21.8,17-31.7,26.8
			c-10,9.8-19.3,20.4-27.9,31.7c-8.6,11.2-16.5,23.1-23.7,35.4c-7.1,12.3-13.5,25.1-18.8,38.3c-5.4,13.1-9.8,26.6-13.1,40.3
			c-3.2,13.7-5.3,27.5-5.8,41.3l0,1.3c-0.4,10.6-9.3,18.9-19.9,18.5c-10.6-0.4-18.9-9.3-18.5-19.9l0,0c0.4-10.1-1-20.3-4.1-30.1
			c-3-9.8-7.8-19.2-14-27.6c-6.2-8.5-13.8-16-22.4-22.2c-8.6-6.2-18.2-11.1-28.3-14.2c-10.1-3.1-20.7-4.4-31.2-3.7
			c-10.5,0.7-20.8,3.6-30.4,8.3c-4.8,2.4-9.4,5.2-13.7,8.5c-4.4,3.3-8.5,7-12.3,11c-3.8,4-7.5,8.4-10.8,13
			c-3.3,4.6-6.4,9.5-9.2,14.5L405,336c-2.8,5-9.1,6.7-14.1,3.9c-1.8-1-3.2-2.5-4.1-4.2c-5.9-11.4-13-22.2-21.8-31.1
			c-4.4-4.5-9.1-8.4-14.3-11.8c-5.2-3.3-10.7-6-16.5-7.8c-5.8-1.8-11.9-2.8-18.1-2.9c-6.2-0.1-12.5,0.6-18.6,2.1
			c-12.4,2.9-24.2,8.8-35,16.3c-10.8,7.6-20.5,16.8-29,27.1c-8.6,10.3-15.9,21.7-22.1,33.7c-6.1,12-11,24.8-14.4,37.9
			C193.5,412.4,191.4,426,191,439.6z"/>
		<g>
			<polygon class="st2" points="801.9,180.4 910.9,77.9 767.7,34.8 			"/>
		</g>
	</g>
</g>
</svg>
