<?xml version="1.0" encoding="utf-8"?>
<!-- Generator: Adobe Illustrator 22.1.0, SVG Export Plug-In . SVG Version: 6.00 Build 0)  -->
<svg version="1.1" id="Layer_1" xmlns="http://www.w3.org/2000/svg" xmlns:xlink="http://www.w3.org/1999/xlink" x="0px" y="0px"
	 viewBox="0 0 1000 1000" style="enable-background:new 0 0 1000 1000;" xml:space="preserve">
<style type="text/css">
	.st0{fill:none;stroke:#FFFFFF;stroke-width:8;stroke-linecap:round;stroke-linejoin:round;}
	.st1{fill:none;stroke:#FFFFFF;stroke-width:8;stroke-linecap:round;stroke-linejoin:round;stroke-dasharray:11.7092,24.3942;}
	.st2{fill:none;stroke:#FFFFFF;stroke-width:8;stroke-linecap:round;stroke-linejoin:round;stroke-dasharray:12.3047,25.6349;}
	.st3{fill:none;stroke:#FFFFFF;stroke-width:8;stroke-linecap:round;stroke-linejoin:round;stroke-dasharray:12.3572,25.7442;}
	.st4{fill:none;stroke:#FFFFFF;stroke-width:8;stroke-linecap:round;stroke-linejoin:round;stroke-dasharray:11.258,23.4542;}
	.st5{fill:none;stroke:#FF958D;stroke-width:60;stroke-linecap:round;stroke-linejoin:round;stroke-miterlimit:10;}
	.st6{fill:none;stroke:#FFBDB8;stroke-width:60;stroke-linecap:round;stroke-linejoin:round;stroke-miterlimit:10;}
	.st7{fill:none;stroke:#FFFFFF;stroke-width:7;stroke-linecap:round;stroke-linejoin:round;stroke-miterlimit:10;}
	.st8{fill:none;stroke:#FFFFFF;stroke-width:4;stroke-linecap:round;stroke-linejoin:round;stroke-miterlimit:10;}
	.st9{fill:none;stroke:#FFBDB8;stroke-width:40;stroke-linecap:round;stroke-linejoin:round;stroke-miterlimit:10;}
</style>
<g>
	<g>
		<line class="st0" x1="849.2" y1="169.8" x2="849.2" y2="175.8"/>
		<line class="st1" x1="849.2" y1="200.2" x2="849.2" y2="910"/>
		<line class="st0" x1="849.2" y1="922.2" x2="849.2" y2="928.2"/>
	</g>
</g>
<g>
	<g>
		<line class="st0" x1="627" y1="511.2" x2="627" y2="517.2"/>
		<line class="st2" x1="627" y1="542.8" x2="627" y2="909.4"/>
		<line class="st0" x1="627" y1="922.2" x2="627" y2="928.2"/>
	</g>
</g>
<g>
	<g>
		<line class="st0" x1="404.8" y1="433.3" x2="404.8" y2="439.3"/>
		<line class="st3" x1="404.8" y1="465" x2="404.8" y2="909.4"/>
		<line class="st0" x1="404.8" y1="922.2" x2="404.8" y2="928.2"/>
	</g>
</g>
<g>
	<g>
		<line class="st0" x1="182.6" y1="719.2" x2="182.6" y2="725.2"/>
		<line class="st4" x1="182.6" y1="748.7" x2="182.6" y2="910.5"/>
		<line class="st0" x1="182.6" y1="922.2" x2="182.6" y2="928.2"/>
	</g>
</g>
<polyline class="st5" points="182.6,220.2 404.8,444.5 627,668.8 849.2,533.5 "/>
<polyline class="st6" points="182.6,755.1 404.8,445.1 627,533.5 849.2,169.8 "/>
<circle class="st7" cx="183.6" cy="754.1" r="13.2"/>
<circle class="st7" cx="849.2" cy="169.8" r="13.2"/>
<circle class="st7" cx="849.2" cy="533.5" r="13.2"/>
<circle class="st8" cx="627" cy="661.8" r="8"/>
<circle class="st8" cx="404.8" cy="451.5" r="8"/>
<circle class="st8" cx="628" cy="528.4" r="8"/>
<circle class="st7" cx="182.6" cy="220.2" r="13.2"/>
<path class="st9" d="M929.2,928.2H120c-27.2,0-49.2-22-49.2-49.2V69.8"/>
</svg>
