<?xml version="1.0" encoding="UTF-8"?>
<svg enable-background="new 0 0 80 80" version="1.1" viewBox="0 0 80 80" xml:space="preserve" xmlns="http://www.w3.org/2000/svg">
<style type="text/css">
	.st0{fill:#fff;}
</style>
	<path class="st0" d="m37.1 58.4c0.5 0.7 1.3 1 2.2 1 0.8 0 1.6-0.4 2.2-1l18.5-22.9c0.7-0.8 0.8-2 0.3-2.9-0.5-1-1.4-1.6-2.5-1.6h-4v-23.2c0-1.5-1.2-2.8-2.8-2.8h-23.5c-1.5 0-2.8 1.2-2.8 2.8v23.2h-3.9c-1.1 0-2 0.6-2.5 1.6s-0.3 2.1 0.3 3l18.5 22.8z"/>
	<path class="st0" d="m69 65.6h-59.4c-2.1 0-3.8 1.7-3.8 3.8v2.8c0 2.1 1.7 3.8 3.8 3.8h59.4c2.1 0 3.8-1.7 3.8-3.8v-2.8c-0.1-2.1-1.8-3.8-3.8-3.8z"/>
</svg>
