<?xml version="1.0" encoding="utf-8"?>
<!-- Generator: Adobe Illustrator 19.1.0, SVG Export Plug-In . SVG Version: 6.00 Build 0)  -->
<svg version="1.1"
	 id="svg2" xmlns:dc="http://purl.org/dc/elements/1.1/" xmlns:svg="http://www.w3.org/2000/svg" xmlns:sodipodi="http://sodipodi.sourceforge.net/DTD/sodipodi-0.dtd" xmlns:cc="http://creativecommons.org/ns#" xmlns:rdf="http://www.w3.org/1999/02/22-rdf-syntax-ns#" xmlns:inkscape="http://www.inkscape.org/namespaces/inkscape" inkscape:version="0.48.3.1 r9886" sodipodi:docname="word.svg"
	 xmlns="http://www.w3.org/2000/svg" xmlns:xlink="http://www.w3.org/1999/xlink" x="0px" y="0px" viewBox="-444 447.5 110 107.5"
	 style="enable-background:new -444 447.5 110 107.5;" xml:space="preserve">
<style type="text/css">
	.st0{fill:none;stroke:#FFFFFF;stroke-width:2;stroke-miterlimit:10;}
</style>
<sodipodi:namedview  borderopacity="1" id="namedview122" showgrid="false" pagecolor="#ffffff" objecttolerance="10" bordercolor="#666666" fit-margin-left="0" guidetolerance="10" inkscape:cx="344.89442" fit-margin-top="0" inkscape:zoom="1.0905983" gridtolerance="10" inkscape:cy="53.75" inkscape:window-width="1280" inkscape:pageopacity="0" inkscape:pageshadow="2" inkscape:window-height="960" inkscape:window-x="0" inkscape:window-y="0" inkscape:window-maximized="1" inkscape:current-layer="svg2" fit-margin-right="0" fit-margin-bottom="0">
	</sodipodi:namedview>
<path id="path58" inkscape:connector-curvature="0" class="st0" d="M-365.9,471.2c5.4,0,10.8,0,16.2,0c0,2.7,0,5.4,0,8.1
	c-5.4,0-10.8,0-16.2,0C-365.9,476.6-365.9,473.9-365.9,471.2z"/>
<path class="st0" d="M-338.2,528c0-20.1,0-40.2,0-60.3c-0.1-1.9,0.1-4.2-1.1-5.8c-1.7-1.2-3.9-1-5.8-1.1c-11.6,0.1-23.1,0-34.7,0
	c0-3.1,0-6.2,0-9.3h-6.8c-17.8,3.1-35.5,6.2-53.2,9.3c0,27,0,54,0,81c17.7,3.1,35.4,6,52.9,9.3h7.2c0-3.5,0-6.9,0-10.5
	c12,0,24,0,36,0c1.9-0.1,4.8-0.2,5.3-2.6C-337.9,534.7-338.3,531.3-338.2,528z M-405.9,519.3c-1.9-4.8-4.4-9.5-5.7-14.5
	c-1.6,4.7-3.8,9.2-5.6,13.7c-2.5,0-5.1-0.2-7.6-0.3c3-5.8,5.8-11.7,8.9-17.5c-2.6-5.9-5.5-11.8-8.1-17.8c2.6-0.2,5.1-0.3,7.7-0.5
	c1.8,4.5,3.6,9,5,13.6c1.6-4.9,3.8-9.5,5.7-14.3c2.6-0.2,5.3-0.4,7.9-0.5c-3.1,6.3-6.2,12.7-9.3,19c3.1,6.5,6.5,13,9.6,19.4
	C-400.4,519.7-403.1,519.5-405.9,519.3z M-341.7,537.1c-12.8,0-25.5,0-38.2,0c0-2.3,0-4.6,0-6.9c3.1,0,6.2,0,9.3,0
	c0-2.7,0-5.4,0-8.1c-3.1,0-6.2,0-9.3,0c0-1.6,0-3.1,0-4.6c3.1,0,6.2,0,9.3,0c0-2.7,0-5.4,0-8.1c-3.1,0-6.2,0-9.3,0
	c0-1.6,0-3.1,0-4.6c3.1,0,6.2,0,9.3,0c0-2.7,0-5.4,0-8.1c-3.1,0-6.2,0-9.3,0c0-1.6,0-3.1,0-4.6c3.1,0,6.2,0,9.3,0c0-2.7,0-5.4,0-8.1
	c-3.1,0-6.2,0-9.3,0c0-1.6,0-3.1,0-4.6c3.1,0,6.2,0,9.3,0c0-2.7,0-5.4,0-8.1c-3.1,0-6.2,0-9.3,0c0-2.3,0-4.6,0-6.9
	c12.8,0,25.5,0,38.2,0C-341.7,488.5-341.7,512.9-341.7,537.1z"/>
<path id="path90" inkscape:connector-curvature="0" class="st0" d="M-365.9,483.9c5.4,0,10.8,0,16.2,0c0,2.7,0,5.4,0,8.1
	c-5.4,0-10.8,0-16.2,0C-365.9,489.3-365.9,486.6-365.9,483.9z"/>
<path id="path108" inkscape:connector-curvature="0" class="st0" d="M-365.9,496.7c5.4,0,10.8,0,16.2,0c0,2.7,0,5.4,0,8.1
	c-5.4,0-10.8,0-16.2,0C-365.9,502-365.9,499.4-365.9,496.7z"/>
<path id="path114" inkscape:connector-curvature="0" class="st0" d="M-365.9,509.3c5.4,0,10.8,0,16.2,0c0,2.7,0,5.4,0,8.1
	c-5.4,0-10.8,0-16.2,0C-365.9,514.7-365.9,512-365.9,509.3z"/>
<path id="path120" inkscape:connector-curvature="0" class="st0" d="M-365.9,522.1c5.4,0,10.8,0,16.2,0c0,2.7,0,5.4,0,8.1
	c-5.4,0-10.8,0-16.2,0C-365.9,527.5-365.9,524.8-365.9,522.1z"/>
</svg>
