<?xml version="1.0" encoding="utf-8"?>
<!-- Generator: Adobe Illustrator 22.1.0, SVG Export Plug-In . SVG Version: 6.00 Build 0)  -->
<svg version="1.1" id="Camada_1" xmlns="http://www.w3.org/2000/svg" xmlns:xlink="http://www.w3.org/1999/xlink" x="0px" y="0px"
	 viewBox="0 0 68 78" style="enable-background:new 0 0 68 78;" xml:space="preserve">
<style type="text/css">
	.st0{fill:#27346A;}
	.st1{fill:#2790C3;}
	.st2{fill:#1F264F;}
</style>
<g>
	<path class="st0" d="M56.3,7.2c-3.5-4-9.7-5.7-17.8-5.7H15.2c-1.6,0-3,1.2-3.3,2.8L2.2,65.9c-0.2,1.2,0.7,2.3,2,2.3h14.4l3.6-22.9
		L22.1,46c0.3-1.6,1.6-2.8,3.3-2.8h6.8c13.4,0,23.9-5.5,27-21.2c0.1-0.5,0.2-0.9,0.2-1.4c-0.4-0.2-0.4-0.2,0,0
		C60.4,14.7,59.5,10.8,56.3,7.2"/>
	<path class="st0" d="M27.7,18.5c0.4-0.2,0.8-0.3,1.3-0.3h18.3c2.2,0,4.2,0.1,6,0.4c0.5,0.1,1,0.2,1.5,0.3c0.7,0.2,1.4,0.4,2.1,0.6
		c0.9,0.3,1.8,0.7,2.5,1.1c0.9-5.8,0-9.8-3.2-13.4c-3.5-4-9.7-5.7-17.8-5.7H15.2c-1.6,0-3,1.2-3.3,2.8L2.2,65.9
		c-0.2,1.2,0.7,2.3,2,2.3h14.4l7.5-47.5C26.3,19.7,26.9,18.9,27.7,18.5L27.7,18.5z"/>
	<path class="st1" d="M59.3,21.9c-3.1,15.8-13.6,21.2-27,21.2h-6.8c-1.6,0-3,1.2-3.3,2.8l-4.5,28.5c-0.2,1.1,0.7,2,1.7,2h12.1
		c1.4,0,2.7-1,2.9-2.5l0.1-0.6l2.3-14.5l0.1-0.8c0.2-1.4,1.4-2.5,2.9-2.5h1.8c11.7,0,21-4.8,23.6-18.6c1.1-5.8,0.5-10.6-2.4-14
		c-0.9-1-2-1.9-3.3-2.6C59.4,21,59.3,21.5,59.3,21.9L59.3,21.9z"/>
	<path class="st2" d="M56.3,19.3c-0.5-0.1-1-0.3-1.4-0.4c-0.5-0.1-1-0.2-1.5-0.3c-1.8-0.3-3.9-0.4-6-0.4H29c-0.4,0-0.9,0.1-1.3,0.3
		c-0.9,0.4-1.5,1.2-1.6,2.2l-3.9,24.6L22.1,46c0.3-1.6,1.6-2.8,3.3-2.8h6.8c13.4,0,23.9-5.5,27-21.2c0.1-0.5,0.2-0.9,0.2-1.4
		c-0.8-0.4-1.6-0.8-2.5-1.1C56.7,19.4,56.5,19.3,56.3,19.3"/>
</g>
</svg>
