<?xml version="1.0" encoding="utf-8"?>
<!-- Generator: Adobe Illustrator 22.1.0, SVG Export Plug-In . SVG Version: 6.00 Build 0)  -->
<svg version="1.1" id="Camada_1" xmlns="http://www.w3.org/2000/svg" xmlns:xlink="http://www.w3.org/1999/xlink" x="0px" y="0px"
	 viewBox="0 0 1000 1000" style="enable-background:new 0 0 1000 1000;" xml:space="preserve">
<style type="text/css">
	.st0{fill:#2A3D59;}
	.st1{fill:#FFFFFF;}
	.st2{fill:#4C719E;}
</style>
<g>
	<polygon class="st0" points="680.9,62.2 833.1,14 625.3,321.4 473.1,369.7 	"/>
	<path class="st1" d="M784.3,50.4l-171.7,254l-90.7,28.8l171.7-254L784.3,50.4 M881.9-22.5L772.2,12.3l-90.7,28.8l-13.3,4.2
		l-7.8,11.5l-171.7,254l-64.4,95.3L534,371.3l90.7-28.8l13.3-4.2l7.8-11.5l171.7-254C817.5,72.8,881.9-22.5,881.9-22.5z"/>
	<polygon class="st0" points="478.6,126.4 630.7,78.1 422.9,385.6 270.8,433.8 	"/>
	<path class="st1" d="M582,114.6l-171.7,254l-90.7,28.8l171.7-254L582,114.6 M679.5,41.7L569.9,76.5l-90.7,28.8l-13.3,4.2l-7.8,11.5
		L286.4,375L222,470.3l109.6-34.8l90.7-28.8l13.3-4.2l7.8-11.5l171.7-254L679.5,41.7L679.5,41.7z"/>
	<polygon class="st0" points="98,454.2 276.2,190.6 428.4,142.3 220.6,449.8 107.9,485.5 	"/>
	<path class="st1" d="M379.6,178.8l-171.7,254l-87,27.6l-0.9-3l168.9-249.9L379.6,178.8 M477.2,105.9l-109.6,34.8l-90.7,28.8
		l-13.3,4.2l-7.8,11.5L86.9,435L76,451l5.9,18.5l0.9,3l12.1,38.1l38.1-12.1l87-27.6l13.3-4.2l7.8-11.5l171.7-254L477.2,105.9
		L477.2,105.9z"/>
	<path class="st0" d="M59.5,332.8c-11.7-36.8,8.8-76.3,45.6-88L226,206.5l-140.6,208C85.4,414.5,59.5,332.8,59.5,332.8z"/>
	<path class="st1" d="M177.3,242.9L92,369.1l-13.4-42.3c-8.4-26.4,6.2-54.5,32.6-62.9L177.3,242.9 M274.8,170l-109.6,34.8l-66.1,21
		c-47.3,15-73.6,65.7-58.6,113.1l13.4,42.3l25,78.8l46.3-68.5l85.3-126.1L274.8,170z"/>
	<path class="st0" d="M854.3,40.9l46.5,146.8c3.6,11.3,2.5,23.2-2.9,33.7s-14.6,18.2-25.9,21.8l-196.6,62.3L854.3,40.9L854.3,40.9z"
		/>
	<path class="st1" d="M847.7,86.3l34,107.4c4,12.7-3,26.3-15.7,30.4l-141.8,45L847.7,86.3 M860.9-4.5L814.6,64L691.1,246.7
		L626.7,342l109.6-34.8l141.8-45c33.7-10.7,52.5-46.9,41.8-80.6l-34-107.4L860.9-4.5L860.9-4.5z"/>
	<path class="st0" d="M130.2,969.6c-17.8,0-32.3-14.5-32.3-32.3V463.8c0-17.8,14.5-32.3,32.3-32.3h781.3c17.8,0,32.3,14.5,32.3,32.3
		v473.5c0,17.8-14.5,32.3-32.3,32.3H130.2L130.2,969.6z"/>
	<path class="st1" d="M911.5,451.5c6.8,0,12.3,5.5,12.3,12.3v473.5c0,6.8-5.5,12.3-12.3,12.3H130.2c-6.8,0-12.3-5.5-12.3-12.3V463.8
		c0-6.8,5.5-12.3,12.3-12.3H911.5 M911.5,411.5H130.2c-28.8,0-52.3,23.4-52.3,52.3v473.5c0,28.8,23.4,52.3,52.3,52.3h781.3
		c28.8,0,52.3-23.4,52.3-52.3V463.8C963.7,435,940.3,411.5,911.5,411.5z"/>
	<polygon class="st2" points="874.1,451.8 778.9,451.8 630,569.8 725.1,569.8 	"/>
	<polygon class="st2" points="661.8,451.9 566.7,452 417.9,569.8 513,569.8 	"/>
	<polygon class="st2" points="449.5,452.1 354.4,452.1 205.8,569.8 300.9,569.8 	"/>
	<path class="st2" d="M237.3,452.2l-108.8,0.1c-5.9,0-10.6,4.8-10.6,10.6l0.1,83.9L237.3,452.2L237.3,452.2z"/>
	<polygon class="st2" points="923.7,505.1 842.1,569.8 923.8,569.8 	"/>
	<path class="st2" d="M829.7,685.9H212c-6,0-10.8-4.8-10.8-10.8s4.8-10.8,10.8-10.8h617.7c6,0,10.8,4.8,10.8,10.8
		S835.6,685.9,829.7,685.9z"/>
	<path class="st2" d="M593.7,738.7H212c-6,0-10.8-4.8-10.8-10.8s4.8-10.8,10.8-10.8h381.8c6,0,10.8,4.8,10.8,10.8
		C604.5,733.8,599.7,738.7,593.7,738.7L593.7,738.7z"/>
	<path class="st2" d="M829.7,868h-236c-6,0-10.8-4.8-10.8-10.8s4.8-10.8,10.8-10.8h235.9c6,0,10.8,4.8,10.8,10.8
		C840.5,863.2,835.6,868,829.7,868L829.7,868z"/>
</g>
</svg>
