<?xml version="1.0" encoding="utf-8"?>
<!-- Generator: Adobe Illustrator 19.1.0, SVG Export Plug-In . SVG Version: 6.00 Build 0)  -->
<svg version="1.1" id="Layer_1" xmlns="http://www.w3.org/2000/svg" xmlns:xlink="http://www.w3.org/1999/xlink" x="0px" y="0px"
	 viewBox="0 0 1000 1000" style="enable-background:new 0 0 1000 1000;" xml:space="preserve">
<style type="text/css">
	.st0{fill:none;stroke:#026937;stroke-width:8;stroke-linecap:round;stroke-linejoin:round;}
	.st1{fill:none;stroke:#026937;stroke-width:8;stroke-linecap:round;stroke-linejoin:round;stroke-dasharray:11.7092,24.3942;}
	.st2{fill:none;stroke:#026937;stroke-width:8;stroke-linecap:round;stroke-linejoin:round;stroke-dasharray:12.3047,25.6349;}
	.st3{fill:none;stroke:#026937;stroke-width:8;stroke-linecap:round;stroke-linejoin:round;stroke-dasharray:12.3572,25.7442;}
	.st4{fill:none;stroke:#026937;stroke-width:8;stroke-linecap:round;stroke-linejoin:round;stroke-dasharray:11.258,23.4542;}
	.st5{fill:none;stroke:#026937;stroke-width:60;stroke-linecap:round;stroke-linejoin:round;stroke-miterlimit:10;}
	.st6{fill:none;stroke:#00AD68;stroke-width:60;stroke-linecap:round;stroke-linejoin:round;stroke-miterlimit:10;}
	.st7{fill:none;stroke:#FFFFFF;stroke-width:7;stroke-linecap:round;stroke-linejoin:round;stroke-miterlimit:10;}
	.st8{fill:none;stroke:#FFFFFF;stroke-width:4;stroke-linecap:round;stroke-linejoin:round;stroke-miterlimit:10;}
	.st9{fill:none;stroke:#00AD68;stroke-width:40;stroke-linecap:round;stroke-linejoin:round;stroke-miterlimit:10;}
</style>
<g>
	<g>
		<line class="st0" x1="849.2" y1="170.8" x2="849.2" y2="176.8"/>
		<line class="st1" x1="849.2" y1="201.2" x2="849.2" y2="911"/>
		<line class="st0" x1="849.2" y1="923.2" x2="849.2" y2="929.2"/>
	</g>
</g>
<g>
	<g>
		<line class="st0" x1="627" y1="512.2" x2="627" y2="518.2"/>
		<line class="st2" x1="627" y1="543.8" x2="627" y2="910.4"/>
		<line class="st0" x1="627" y1="923.2" x2="627" y2="929.2"/>
	</g>
</g>
<g>
	<g>
		<line class="st0" x1="404.8" y1="434.3" x2="404.8" y2="440.3"/>
		<line class="st3" x1="404.8" y1="466" x2="404.8" y2="910.4"/>
		<line class="st0" x1="404.8" y1="923.2" x2="404.8" y2="929.2"/>
	</g>
</g>
<g>
	<g>
		<line class="st0" x1="182.6" y1="720.2" x2="182.6" y2="726.2"/>
		<line class="st4" x1="182.6" y1="749.7" x2="182.6" y2="911.5"/>
		<line class="st0" x1="182.6" y1="923.2" x2="182.6" y2="929.2"/>
	</g>
</g>
<polyline class="st5" points="182.6,221.2 404.8,445.5 627,669.8 849.2,534.5 "/>
<polyline class="st6" points="182.6,756.1 404.8,446.1 627,534.5 849.2,170.8 "/>
<circle class="st7" cx="183.6" cy="755.1" r="13.2"/>
<circle class="st7" cx="849.2" cy="170.8" r="13.2"/>
<circle class="st7" cx="849.2" cy="534.5" r="13.2"/>
<circle class="st8" cx="627" cy="662.8" r="8"/>
<circle class="st8" cx="404.8" cy="452.5" r="8"/>
<circle class="st8" cx="628" cy="529.4" r="8"/>
<circle class="st7" cx="182.6" cy="221.2" r="13.2"/>
<path class="st9" d="M929.2,929.2H120c-27.2,0-49.2-22-49.2-49.2V70.8"/>
</svg>
