<?xml version="1.0" encoding="utf-8"?>
<!-- Generator: Adobe Illustrator 19.1.0, SVG Export Plug-In . SVG Version: 6.00 Build 0)  -->
<svg version="1.1" id="Layer_1" xmlns="http://www.w3.org/2000/svg" xmlns:xlink="http://www.w3.org/1999/xlink" x="0px" y="0px"
	 viewBox="300 -300 1000 1000" style="enable-background:new 300 -300 1000 1000;" xml:space="preserve">
<style type="text/css">
	.st0{fill:#FFB4AA;}
	.st1{fill:#FF6D40;}
	.st2{fill:#FF8671;}
	.st3{fill:#FFFFFF;}
	.st4{fill:#FF4500;}
	.st5{fill:none;}
	.st6{fill:#C1C1C1;}
	.st7{fill:#FF4612;}
	.st8{fill:#009944;}
</style>
<g>
	<g>
		<g>
			<rect x="377.3" y="-192.5" class="st0" width="845.3" height="845.3"/>
		</g>
		<g>
			<path class="st1" d="M1207.2-177v814.2H393V-177H1207.2 M1226.8-208.1H373.1c-6.3,0-11.4,5.1-11.4,11.4V657
				c0,6.3,5.1,11.4,11.4,11.4h853.7c6.3,0,11.4-5.1,11.4-11.4v-853.7C1238.3-203,1233.2-208.1,1226.8-208.1L1226.8-208.1z"/>
		</g>
	</g>
	<g>
		<g>
			<rect x="377.3" y="-192.5" class="st2" width="845.3" height="175.8"/>
		</g>
		<g>
			<path class="st1" d="M1207.2-177v144.6H393V-177H1207.2 M1226.8-208.1H373.1c-6.3,0-11.4,5.1-11.4,11.4v184.1
				c0,6.3,5.1,11.4,11.4,11.4h853.7c6.3,0,11.4-5.1,11.4-11.4v-184.1C1238.3-203,1233.2-208.1,1226.8-208.1L1226.8-208.1z"/>
		</g>
	</g>
	<g>
		<g>
			<g>
				<path class="st3" d="M1016.8-67.3c-18.9,0-34.3-15.4-34.3-34.3s15.4-34.4,34.3-34.4s34.3,15.4,34.3,34.3
					S1035.8-67.3,1016.8-67.3z"/>
			</g>
			<g>
				<path class="st4" d="M1016.8-130.8c16.1,0,29.1,13.1,29.1,29.1s-13.1,29.1-29.1,29.1s-29.1-13.1-29.1-29.1
					S1000.8-130.8,1016.8-130.8 M1016.8-141.1c-21.8,0-39.5,17.7-39.5,39.5s17.7,39.5,39.5,39.5c21.8,0,39.5-17.7,39.5-39.5
					S1038.8-141.1,1016.8-141.1L1016.8-141.1z"/>
			</g>
		</g>
		<g>
			<g>
				<path class="st3" d="M583.1-67.3c-18.9,0-34.3-15.4-34.3-34.3s15.4-34.3,34.3-34.3s34.3,15.4,34.3,34.3S602-67.3,583.1-67.3z"/>
			</g>
			<g>
				<path class="st4" d="M583.1-130.8c16.1,0,29.1,13.1,29.1,29.1s-13.1,29.1-29.1,29.1S554-85.7,554-101.7S567-130.8,583.1-130.8
					 M583.1-141.1c-21.8,0-39.5,17.7-39.5,39.5s17.7,39.5,39.5,39.5s39.5-17.7,39.5-39.5S604.9-141.1,583.1-141.1L583.1-141.1z"/>
			</g>
		</g>
		<g>
			<g>
				<line class="st5" x1="1016.8" y1="-101.6" x2="1016.8" y2="-250.2"/>
				<rect x="1014.3" y="-250.2" class="st3" width="5.2" height="148.6"/>
			</g>
			<g>
				<g>
					<path class="st6" d="M1016.8-86c-8.6,0-15.6-7-15.6-15.6v-148.6c0-8.6,7-15.6,15.6-15.6s15.6,7,15.6,15.6v148.6
						C1032.4-93,1025.4-86,1016.8-86z"/>
				</g>
				<g>
					<path class="st3" d="M1016.8-263.2c7.2,0,13,5.8,13,13v148.6c0,7.2-5.8,13-13,13c-7.2,0-13-5.8-13-13v-148.6
						C1003.9-257.4,1009.8-263.2,1016.8-263.2 M1016.8-268.4c-10,0-18.2,8.2-18.2,18.2v148.6c0,10,8.2,18.2,18.2,18.2
						s18.2-8.2,18.2-18.2v-148.6C1035-260.2,1026.9-268.4,1016.8-268.4L1016.8-268.4z"/>
				</g>
			</g>
		</g>
		<g>
			<g>
				<line class="st5" x1="583.1" y1="-101.6" x2="583.1" y2="-250.2"/>
				<rect x="580.5" y="-250.2" class="st3" width="5.2" height="148.6"/>
			</g>
			<g>
				<g>
					<path class="st6" d="M583.1-86c-8.6,0-15.6-7-15.6-15.6v-148.6c0-8.6,7-15.6,15.6-15.6s15.6,7,15.6,15.6v148.6
						C598.8-93,591.8-86,583.1-86z"/>
				</g>
				<g>
					<path class="st3" d="M583.1-263.2c7.2,0,13,5.8,13,13v148.6c0,7.2-5.8,13-13,13s-13-5.8-13-13v-148.6
						C570.1-257.4,575.9-263.2,583.1-263.2 M583.1-268.4c-10,0-18.2,8.2-18.2,18.2v148.6c0,10,8.2,18.2,18.2,18.2
						s18.2-8.2,18.2-18.2v-148.6C601.3-260.2,593.1-268.4,583.1-268.4L583.1-268.4z"/>
				</g>
			</g>
		</g>
	</g>
	<g>
		<g>
			<line class="st5" x1="1054.7" y1="228.4" x2="609.9" y2="228.4"/>
			<path class="st3" d="M1054.7,249.2H609.9c-11.5,0-20.8-9.3-20.8-20.8s9.3-20.8,20.8-20.8h444.7c11.5,0,20.8,9.3,20.8,20.8
				S1066,249.2,1054.7,249.2z"/>
		</g>
		<g>
			<line class="st5" x1="1054.7" y1="228" x2="609.9" y2="228"/>
			<path class="st7" d="M1054.7,238.4H609.9c-5.7,0-10.4-4.7-10.4-10.4s4.7-10.4,10.4-10.4h444.7c5.7,0,10.4,4.7,10.4,10.4
				C1065,233.7,1060.3,238.4,1054.7,238.4z"/>
		</g>
	</g>
	<g>
		<g>
			<line class="st5" x1="1054.7" y1="483.3" x2="609.9" y2="483.3"/>
			<path class="st3" d="M1054.7,504.1H609.9c-11.5,0-20.8-9.3-20.8-20.8s9.3-20.8,20.8-20.8h444.7c11.5,0,20.8,9.3,20.8,20.8
				C1075.3,494.8,1066,504.1,1054.7,504.1z"/>
		</g>
		<g>
			<line class="st5" x1="1054.7" y1="482.8" x2="609.9" y2="482.8"/>
			<path class="st7" d="M1054.7,493.2H609.9c-5.7,0-10.4-4.7-10.4-10.4s4.7-10.4,10.4-10.4h444.7c5.7,0,10.4,4.7,10.4,10.4
				C1065,488.6,1060.3,493.2,1054.7,493.2z"/>
		</g>
	</g>
	<g>
		<g>
			<line class="st5" x1="538.1" y1="420.4" x2="538.1" y2="295.2"/>
			<path class="st3" d="M538.1,441.1c-11.5,0-20.8-9.3-20.8-20.8V295.2c0-11.5,9.3-20.8,20.8-20.8s20.8,9.3,20.8,20.8v125.1
				C558.9,431.8,549.6,441.1,538.1,441.1z"/>
		</g>
		<g>
			<line class="st5" x1="538.5" y1="420.4" x2="538.5" y2="295.2"/>
			<path class="st7" d="M538.5,430.8c-5.7,0-10.4-4.7-10.4-10.4V295.2c0-5.7,4.7-10.4,10.4-10.4s10.4,4.7,10.4,10.4v125.1
				C548.9,426.1,544.3,430.8,538.5,430.8z"/>
		</g>
	</g>
	<g>
		<g>
			<g>
				<rect x="438" y="121.1" class="st3" width="214.6" height="214.6"/>
			</g>
			<g>
				<path class="st7" d="M647.5,126.3v204.3H443.3V126.3H647.5 M657.9,115.9h-225v225h225V115.9L657.9,115.9z"/>
			</g>
		</g>
		<g>
			<g>
				<rect x="692.6" y="121.1" class="st3" width="214.6" height="214.6"/>
			</g>
			<g>
				<path class="st7" d="M902.1,126.3v204.3H697.8V126.3H902.1 M912.5,115.9h-225v225h225V115.9L912.5,115.9z"/>
			</g>
		</g>
		<g>
			<g>
				<rect x="947.3" y="121.1" class="st3" width="214.6" height="214.6"/>
			</g>
			<g>
				<path class="st7" d="M1156.8,126.3v204.3H952.4V126.3H1156.8 M1167.2,115.9h-225v225h225V115.9L1167.2,115.9z"/>
			</g>
		</g>
		<g>
			<g>
				<rect x="438" y="375.7" class="st3" width="214.6" height="214.6"/>
			</g>
			<g>
				<path class="st7" d="M647.5,380.9v204.3H443.3V380.9H647.5 M657.9,370.5h-225v225h225V370.5L657.9,370.5z"/>
			</g>
		</g>
		<g>
			<g>
				<rect x="692.6" y="375.7" class="st3" width="214.6" height="214.6"/>
			</g>
			<g>
				<path class="st7" d="M902.1,380.9v204.3H697.8V380.9H902.1 M912.5,370.5h-225v225h225V370.5L912.5,370.5z"/>
			</g>
		</g>
		<g>
			<g>
				<rect x="947.3" y="375.7" class="st3" width="214.6" height="214.6"/>
			</g>
			<g>
				<path class="st7" d="M1156.8,380.9v204.3H952.4V380.9H1156.8 M1167.2,370.5h-225v225h225V370.5L1167.2,370.5z"/>
			</g>
		</g>
	</g>
	<g>
		<g>
			<g>
				<path class="st3" d="M496.1,105c0,0,8.1,43.2,87.6,82.6s86.3,82.3,86.3,82.3l-77.4,82c0,0-14.3-47-85.4-80.8
					c-71.1-34-84.5-71.1-91.2-86.3C426.8,172.1,496.1,105,496.1,105L496.1,105z"/>
			</g>
		</g>
		<g>
			<g>
				<path class="st8" d="M587.3,184.8c-39.4-21-77.5-43.5-89.7-89.7l-87.3,87.3c12.2,46,50.2,68.7,89.7,89.7s77.5,43.5,89.7,89.7
					l87.3-87.3C664.8,228.5,626.6,205.8,587.3,184.8L587.3,184.8z M603.8,322c-5-9.2-16.2-10.4-24.7-5.7
					c-34.3-50.7-105.3-56.3-139.6-106.9c6.3-10.6,6.9-23.7,5.1-35.5l39-39c5.3,8.7,16.1,10.9,24.7,5.7
					c34.4,50.7,105.3,56.3,139.6,107c-6.2,10.6-6.9,23.7-5.1,35.5L603.8,322z"/>
			</g>
		</g>
		<g>
			<g>
				<path class="st8" d="M616.8,288.9c-4.3,4.4-11.2,3.2-14.8-1.4c-3.6-4.8-3.9-12.2,0.5-16.7c4.4-4.4,11.7-4.5,15.6,0.5
					C622.1,276.5,621.3,284.5,616.8,288.9z"/>
			</g>
		</g>
		<g>
			<g>
				<path class="st8" d="M482.5,184.6c-4.1,4.1-11.8,4.4-15.5-0.6c-3.7-5.2-2.6-13.3,1.7-17.7c4.1-4.5,11.1-2.9,14.5,1.6
					C486.8,172.8,486.8,180.1,482.5,184.6z"/>
			</g>
		</g>
		<g>
			<g>
				<g>
					<path class="st8" d="M542.3,212.9c-1,1.1-1.5,2.4-1.2,3.7c0.2,1.4,0.5,2.6,1.2,3.9c0,0.1,0.1,0.2,0.2,0.3l8.2-9.5
						c-1-0.4-2.2-0.8-3.2-0.9C545.4,210.5,543.8,211.2,542.3,212.9z"/>
				</g>
			</g>
			<g>
				<g>
					<path class="st8" d="M541.8,240.5c0.8-0.9,1.2-2.1,1-3.2c-0.2-1.1-0.5-2.5-1.2-3.6c-0.1-0.1-0.2-0.3-0.3-0.5l-7.6,8.8
						c1,0.4,1.9,0.7,2.9,0.8C538.6,242.9,540.3,242.2,541.8,240.5z"/>
				</g>
			</g>
			<g>
				<g>
					<path class="st8" d="M567.6,202.9l-6.9,7.8c1.7,1.9,3.1,3.9,4.2,6.1s1.8,4.5,2,6.4l-6.3,2.8c-0.7-3.9-2.3-7.4-4.6-10.2l-9.5,11
						c1.6,2.2,2.7,4.2,3.5,5.8c1,2,1.5,4.1,1.4,6.4c-0.1,2.3-1,4.6-3,6.8c-2.4,2.7-5.3,4.2-8.9,4.5c-3.5,0.3-7.1-0.7-10.7-3.1
						l-5.8,6.6c19.5,9.1,51.5,18.7,67.8,2.5C610.4,237.1,583.9,212.2,567.6,202.9L567.6,202.9z"/>
				</g>
			</g>
			<g>
				<g>
					<path class="st8" d="M523.5,242.8c-2.1-2.1-3.8-4.4-5.1-6.8c-1.2-2.4-2.2-4.8-2.5-7.2l6.3-2.8c0.6,2.8,1.6,5.3,2.8,7.5
						c0.8,1.5,1.9,2.8,3.1,4.1l9.1-10.6c-1.5-2.2-2.6-4.2-3.4-5.8c-1-2-1.6-4.3-1.5-6.6c0-2.4,1-4.7,3.1-7.1c2.4-2.7,5.4-4.2,9-4.5
						c3.7-0.2,7.4,0.8,10.9,3.1l5.7-6.5c-19.3-9.2-52.1-19.3-68.7-2.8c-19.6,19.6,8.1,45.1,24.3,53.9L523.5,242.8L523.5,242.8z"/>
				</g>
			</g>
		</g>
	</g>
	<g>
		<path class="st7" d="M763.3,236h-22.5v29.3h-14.5v-71.8H766v12.1h-25.2V224h22.5V236z"/>
		<path class="st7" d="M811.3,234.2h-22.6v19h26.7v12h-41.2v-71.8h41.1v12.1h-26.6v17h22.6V234.2z"/>
		<path class="st7" d="M847.1,245.6l12.1-52.1h16.2l-20.7,71.8h-15.1L819,193.5h16.1L847.1,245.6z"/>
	</g>
	<g>
		<path class="st7" d="M988.1,196.9l12.5,47.7l12.4-47.7h17.4v66H1017V245l1.2-27.5l-13.2,45.4h-9.1l-13.1-45.4L984,245v17.9h-13.3
			v-66H988.1z"/>
		<path class="st7" d="M1073.4,249.4h-18.2l-3.5,13.5h-14.1l20.6-66h12.2l20.8,66h-14.2L1073.4,249.4z M1058.2,238.3h12.3l-6.2-23.5
			L1058.2,238.3z"/>
		<path class="st7" d="M1117.4,238.8h-6.6v24.1h-13.3v-66h21.3c6.7,0,11.8,1.7,15.5,5.2c3.6,3.5,5.5,8.4,5.5,14.8
			c0,8.8-3.2,14.9-9.6,18.4l11.6,27v0.6h-14.3L1117.4,238.8z M1110.8,227.7h7.6c2.7,0,4.7-0.9,6-2.7s2-4.1,2-7.1
			c0-6.6-2.6-9.9-7.8-9.9h-7.8L1110.8,227.7L1110.8,227.7z"/>
	</g>
	<g>
		<path class="st7" d="M742,444.6l13.6,51.9l13.5-51.9H788v71.8h-14.5V497l1.3-30l-14.3,49.4h-9.9L736.3,467l1.3,29.9v19.4H723
			v-71.8L742,444.6L742,444.6z"/>
		<path class="st7" d="M834.8,501.7H815l-3.8,14.7h-15.4l22.4-71.8h13.3l22.6,71.8h-15.5L834.8,501.7z M818.3,489.6h13.4L825,464
			L818.3,489.6z"/>
		<path class="st7" d="M876,516.3h-14.5v-71.8H876V516.3z"/>
	</g>
	<g>
		<path class="st7" d="M496.5,502.2h-19.8l-3.8,14.7h-15.3l22.4-71.8h13.3l22.6,71.8h-15.5L496.5,502.2z M479.8,490.1h13.4
			l-6.7-25.6L479.8,490.1z"/>
		<path class="st7" d="M522.5,516.9v-71.8h22.2c7.5,0,13.2,1.7,17.1,5c3.9,3.3,5.8,8.2,5.8,14.7c0,3.6-0.8,6.8-2.4,9.4
			c-1.6,2.6-3.8,4.6-6.6,5.8c3.2,0.9,5.7,2.8,7.4,5.5c1.7,2.8,2.6,6.2,2.6,10.3c0,7-1.9,12.2-5.7,15.8c-3.8,3.6-9.4,5.3-16.6,5.3
			L522.5,516.9L522.5,516.9z M537,475.1h7.5c5.7,0,8.5-2.9,8.5-8.8c0-3.3-0.7-5.6-2-7c-1.3-1.4-3.5-2.1-6.4-2.1h-7.7v17.9H537z
			 M537,485.7v19.2h9.3c2.6,0,4.6-0.8,5.9-2.4c1.3-1.6,2-3.9,2-6.9c0-6.4-2.3-9.7-7-9.9H537L537,485.7z"/>
		<path class="st7" d="M600.9,490.6h-7.2v26.2h-14.5V445h23.1c7.3,0,12.9,1.9,16.8,5.6c4,3.8,5.9,9.1,5.9,16.1
			c0,9.5-3.5,16.2-10.4,20l12.6,29.4v0.7h-15.6L600.9,490.6z M593.8,478.6h8.2c2.9,0,5.1-1,6.5-2.9c1.4-1.9,2.2-4.5,2.2-7.7
			c0-7.2-2.8-10.8-8.4-10.8h-8.5V478.6z"/>
	</g>
	<g>
		<path class="st7" d="M996.3,445.6h14.5v49.7c0,7-1.9,12.6-5.8,16.8c-3.9,4.2-8.9,6.3-15,6.3c-6.6,0-11.7-2-15.3-5.9
			c-3.6-3.9-5.5-9.4-5.5-16.3h14.6c0,6.8,2.1,10.2,6.3,10.2s6.3-3.9,6.3-11.7L996.3,445.6L996.3,445.6z"/>
		<path class="st7" d="M1068.9,445.6v49.7c-0.1,7.5-2.1,13.2-6.2,17.1c-4,4-9.8,5.9-17.4,5.9c-7.7,0-13.6-2-17.6-6
			c-4.1-4-6.1-9.8-6.1-17.4v-49.4h14.6V495c0,4.1,0.7,7,2,8.7s3.7,2.6,7.2,2.6s5.8-0.9,7.1-2.6c1.3-1.7,1.9-4.6,2-8.5v-49.7
			L1068.9,445.6L1068.9,445.6z"/>
		<path class="st7" d="M1130.2,517.4h-14.5l-21.2-47.1v47.1H1080v-71.8h14.5l21.3,47.1v-47.1h14.4L1130.2,517.4L1130.2,517.4z"/>
	</g>
	<g>
		<line class="st5" x1="440.6" y1="44.1" x2="1159.3" y2="44.1"/>
		<path class="st4" d="M1159.3,49.3H440.6c-2.9,0-5.2-2.3-5.2-5.2s2.3-5.2,5.2-5.2h718.6c2.9,0,5.2,2.3,5.2,5.2
			S1162.3,49.3,1159.3,49.3z"/>
	</g>
	<g>
		<line class="st5" x1="440.6" y1="67" x2="884.8" y2="67"/>
		<path class="st4" d="M884.8,72.2H440.6c-2.9,0-5.2-2.3-5.2-5.2s2.3-5.2,5.2-5.2h444.2c2.9,0,5.2,2.3,5.2,5.2
			S887.8,72.2,884.8,72.2z"/>
	</g>
</g>
</svg>
