<?xml version="1.0" encoding="utf-8"?>
<!-- Generator: Adobe Illustrator 19.1.0, SVG Export Plug-In . SVG Version: 6.00 Build 0)  -->
<svg version="1.1" id="Layer_1" xmlns="http://www.w3.org/2000/svg" xmlns:xlink="http://www.w3.org/1999/xlink" x="0px" y="0px"
	 viewBox="0 0 1000 1000" style="enable-background:new 0 0 1000 1000;" xml:space="preserve">
<style type="text/css">
	.st0{fill:#FFFFFF;}
	.st1{fill:#CC8341;}
	.st2{fill:#9C552A;}
</style>
<path class="st0" d="M69.7,371.1h859.7v410.9c0,17.1-13.9,30.9-30.9,30.9H100.6c-17.1,0-30.9-13.9-30.9-30.9V371.1z"/>
<g>
	<g>
		<path class="st1" d="M513.9,493H486v23.3l-11.1-2.2c-5.1-1-10.2-2.3-15.1-3.8L79.6,390.4v-27.9c0-47.3,38.4-85.7,85.7-85.7h188.3
			v-0.9c0-52.7,42.9-95.6,95.6-95.6h101.9c52.7,0,95.6,42.9,95.6,95.6v0.9h188.3c47.3,0,85.7,38.4,85.7,85.7v28L545,510.1
			c-6.5,2-13.4,3.7-20.2,4.8l-10.8,1.8L513.9,493L513.9,493z M596.6,276.9c-2.5-22.1-14-42.9-36.1-42.9h-121
			c-22.1,0-33.6,20.8-36.1,42.9H596.6z"/>
		<path class="st0" d="M551,189.6c47.5,0,86.3,38.7,86.3,86.3v10.2h197.6c42.1,0,76.4,34.1,76.4,76.4v21.2L542.1,501.2
			c-6.2,2-12.6,3.4-18.9,4.6v-15.5c0-3.6-2.9-6.5-6.5-6.5h-33.5c-3.6,0-6.5,2.9-6.5,6.5v14.7c-4.7-0.9-9.5-2.1-14.1-3.6L88.9,383.5
			v-21.1c0-42.1,34.1-76.4,76.4-76.4h197.6v-10.2c0-47.5,38.7-86.3,86.3-86.3L551,189.6 M393.5,286.2h212.9
			c0-31.2-15.7-61.5-46-61.5h-121C409.3,224.7,393.5,255,393.5,286.2 M551,171H449c-55,0-100.2,42.5-104.5,96.5H165.2
			c-52.4,0-95,42.6-95,95v21.1v13.7l13,4.1l373.7,117.8c5.2,1.7,10.6,3.1,16.1,4.1l22.2,4.4v-22.7v-2.6h9.4v3.4v21.9l21.6-3.5
			c7.4-1.2,14.5-3,21.6-5.1l368.9-117.7l12.9-4.1v-13.6v-21.2c0-52.4-42.6-95-95-95H655.5C651.2,213.5,606,171,551,171L551,171z
			 M414.7,267.6c1.4-5.1,3.4-9.7,6-13.5c4.9-7.3,11.1-10.8,18.9-10.8h121c7.8,0,14,3.5,18.9,10.8c2.5,3.8,4.6,8.4,6,13.5H414.7
			L414.7,267.6z"/>
	</g>
	<g>
		<path class="st2" d="M125.1,803.5v-9.3c0-20-16.3-36.2-36.2-36.2h-9.3V391.9l379.8,119.7c6,2,12.5,3.4,18.9,4.6l7.7,1.3v13.6
			c0,7.7,6.2,14,14,14c0.1,0,0.3,0,0.4,0c7.5-0.2,13.6-6.7,13.6-14.5v-12.7l8-1.1c8-1.1,15.9-3,23.4-5.3l375-119.6V758H911
			c-20,0-36.2,16.3-36.2,36.2v9.3H125.1L125.1,803.5z"/>
		<path class="st0" d="M88.9,404.5l367.7,115.9c6.6,2.1,13.4,3.7,20.1,4.8v5.8c0,12.8,10.4,23.3,23.3,23.3c0.2,0,0.5,0,0.7,0
			c12.7-0.4,22.6-11.1,22.6-23.8v-4.7c8.4-1.2,16.7-3.1,25-5.7L911,404.4v344.1c-25.1,0-45.5,20.4-45.5,45.5H134.4
			c0-25.1-20.4-45.5-45.5-45.5L88.9,404.5 M929.7,379.1l-24.3,7.7L542.6,502.6c-7.1,2.2-14.4,3.9-22,5l-16,2.2v16.2v4.7
			c0,2.7-2,5.1-4.6,5.2h-0.2c-2.6,0-4.7-2.1-4.7-4.7v-5.8v-15.8l-15.4-2.7c-6-1-12-2.5-17.7-4.3L94.5,386.8l-24.2-7.6v25.4v344.2
			v18.6h18.6c14.8,0,26.9,12.1,26.9,26.9v18.6h18.6h731.2h18.6v-18.6c0-14.8,12.1-26.9,26.9-26.9h18.6v-18.6V404.6L929.7,379.1
			L929.7,379.1z"/>
	</g>
</g>
</svg>
